<?xml version="1.0" encoding="utf-8"?>
<!-- Generator: Adobe Illustrator 21.1.0, SVG Export Plug-In . SVG Version: 6.00 Build 0)  -->
<svg version="1.1" id="Layer_1" xmlns="http://www.w3.org/2000/svg" xmlns:xlink="http://www.w3.org/1999/xlink" x="0px" y="0px"
	 viewBox="0 0 103 293.7" style="enable-background:new 0 0 103 293.7;" xml:space="preserve">
<g>
	<path d="M10,99.3v18.4v18.9v86c0,6.8,5.5,12.4,12.4,12.4s12.4-5.5,12.4-12.4v-78.3h6L57.1,225c1.4,6.7,7.9,11,14.6,9.7
		c6.7-1.4,11-7.9,9.7-14.6l-17.3-85.1V90.5c3.4,8,6.3,20,6.3,38.1c0,1.5,0,3.1-0.1,4.8c-0.1,4.4,3.4,8.1,7.8,8.2c0.1,0,0.1,0,0.2,0
		c4.3,0,7.9-3.4,8-7.8c0-1.8,0.1-3.5,0.1-5.2c0-26.2-5.7-42.8-12-53.1C68,65.3,61.2,61.8,60,61.3c-0.4-0.2-0.8-0.3-1.2-0.4
		c-0.8-0.3-1.6-0.4-2.5-0.4H45.8c-4.3,9.7-8.3,17.4-12.2,23.4C29.8,89.6,22,99.3,10,99.3z"/>
	<path d="M37.6,44.4c0.4,0,0.7,0,1.1,0.1l20.2-7.9c0-0.1,0-0.2,0.1-0.2c2.8-12.1-4.7-24.2-16.8-27C30,6.5,17.9,14,15.1,26.1
		c-2.5,10.7,3.1,21.3,12.7,25.6c0.2-0.5,0.4-0.9,0.6-1.4C30,46.8,33.6,44.4,37.6,44.4z"/>
	<path d="M5.7,96.2c0.3,0.2,0.6,0.4,0.9,0.6h0c0,0,0,0,0,0c0.3,0.1,0.5,0.3,0.8,0.4c0.2,0.1,0.4,0.2,0.6,0.3
		c0.7,0.3,1.4,0.4,2.1,0.6c0.7,0.1,1.5,0.2,2.2,0.2c0,0,0,0,0.1,0c3.3,0,6.1-1.3,8.6-3c3.7-2.7,7.1-6.6,11-12.5
		c3.5-5.5,7.4-12.7,11.7-22.3c0.4-0.9,0.8-1.9,1.3-2.8c0.8-1.8,0.9-3.7,0.3-5.4c-0.1-0.2-0.1-0.4-0.2-0.6c-0.3-0.7-0.6-1.3-1-1.9
		c-0.8-1.1-1.9-2-3.3-2.6c-0.3-0.1-0.5-0.2-0.8-0.3c-1.7-0.6-3.6-0.5-5.2,0.1c-2,0.7-3.7,2.2-4.6,4.3c-0.2,0.4-0.4,0.9-0.6,1.3
		c-1.3,2.9-2.5,5.5-3.7,7.9c-1,2-1.9,3.8-2.8,5.4c-3,5.7-5.6,9.7-7.7,12.3c-1.5,2-2.8,3.2-3.5,3.7c-0.1,0-0.1,0-0.2,0
		c2.6-2.6,6.4-9.4,10.5-18c0.5-1.1,1.1-2.3,1.6-3.5h-6.2c-0.3,0-0.6,0-0.9,0.1c-0.4-0.1-0.7-0.1-1.1-0.1v0c-3.5,0-6.6,1.6-8.6,3.4
		c-3,2.8-4.5,6-5.5,9.2c-1,3.2-1.5,6.5-1.5,9.8c0,2.3,0.2,4.5,1,6.9C1.7,91.7,2.9,94.3,5.7,96.2z"/>
	<polygon points="54.6,45.3 73.6,37.9 72,34 57.9,39.5 47.4,43.6 48.9,47.5 	"/>
	<path d="M45.9,49l1.2-0.5l-1.5-3.9l-3,1.2C44,46.6,45.1,47.7,45.9,49z"/>
	<path d="M78.1,32h1.2c0,0,0-3,0-7c0-1.8,0.6-2.8,1.8-3.7c1.2-0.8,3.3-1.3,6.2-1.3c3.2,0,6-1.1,7.9-2.9c1.9-1.8,3.1-4.3,3.1-7.1
		c0-2.3,0.6-4.3,1.9-5.7c1.3-1.4,3.5-2.3,7.1-2.3V0c-3.9,0-6.7,1.1-8.5,2.9C97,4.8,96.3,7.3,96.3,10c0,4.4-3.5,8-9,8
		c-3.1,0-5.5,0.5-7.3,1.7c-1.8,1.2-2.7,3.1-2.7,5.3c0,2.6,0,4.8,0,6c0,0.6,0,1,0,1S78.1,32,78.1,32z"/>
	<path d="M69,19c0-1.2,0.1-2,0.3-2.5c0.2-0.5,0.4-0.7,0.9-1C71.1,15.1,73,15,76,15c1.2,0,1.8,0,2.6-0.6c0.3-0.2,0.5-0.6,0.4-1
		c-0.1-1-0.6-1.3-1.1-1.8c-0.5-0.5-1.1-1-1.7-1.6C75,8.8,74,7.4,74,6c0-1.9,1.2-2.8,3-3.4C78.9,2,81,2,82,2V0c-1,0-3.4,0-5.5,0.7
		C74.3,1.3,72,2.9,72,6c0,2.2,1.3,3.9,2.6,5.2c0.7,0.7,1.4,1.3,1.9,1.8c-0.1,0-0.3,0-0.5,0c-2.3,0-4,0-5.4,0.3
		c-1.4,0.3-2.6,1.1-3.1,2.5C67.1,16.6,67,17.7,67,19c0,5,0,13,0,13h2C69,32,69,24,69,19z"/>
	<polygon points="55.8,55.1 75.9,58.7 76.6,54.6 61.7,51.9 50.6,49.9 49.9,54 	"/>
	<path d="M84.7,41c0-1.2,0.1-2,0.3-2.5c0.2-0.5,0.4-0.7,0.9-1c0.9-0.5,2.8-0.5,5.8-0.5c1.2,0,1.8,0,2.6-0.6c0.3-0.2,0.5-0.6,0.4-1
		c-0.1-1-0.6-1.3-1.1-1.8c-0.5-0.5-1.1-1-1.7-1.6c-1.2-1.2-2.3-2.6-2.2-4c0-1.9,1.2-2.8,3-3.4c1.8-0.6,4-0.6,5-0.6v-2
		c-1,0-3.4,0-5.5,0.7c-2.2,0.6-4.5,2.3-4.5,5.3c0,2.2,1.3,3.9,2.6,5.2c0.7,0.7,1.4,1.3,1.9,1.8c-0.1,0-0.3,0-0.5,0
		c-2.3,0-4,0-5.4,0.3c-1.4,0.3-2.6,1.1-3.1,2.5c-0.4,0.9-0.5,1.9-0.5,3.3c0,5,0,13,0,13h2C84.7,54,84.7,46,84.7,41z"/>
	<path d="M47.2,53.7l1.2,0.1l0.7-4.1l-3-0.3C46.8,50.8,47.1,52.2,47.2,53.7z"/>
	<polygon points="56.1,50 76.4,48.1 76.1,43.9 61,45.3 49.7,46.4 50.1,50.6 	"/>
	<path d="M46.9,51.1l1.3-0.1l-0.4-4.2l-3.3,0.3C45.6,48.3,46.4,49.6,46.9,51.1z"/>
</g>
</svg>
