<svg xmlns="http://www.w3.org/2000/svg" xmlns:xlink="http://www.w3.org/1999/xlink" version="1.1" x="0px" y="0px" viewBox="0 0 100 125" enable-background="new 0 0 100 100" xml:space="preserve"><path d="M41.5062866,17.9856567c-0.0932617-0.5075684-0.1488037-1.0281372-0.1488037-1.5622559  c0-4.7654419,3.8769531-8.642395,8.642395-8.642395c4.7659912,0,8.6429443,3.8769531,8.6429443,8.642395  c0,0.4044189-0.0375977,0.7992554-0.0916138,1.1891479c-0.017395,0.125-0.0346069,0.250061-0.0571899,0.3734131  c-0.0169067,0.0918579-0.0325317,0.1836548-0.0523071,0.2746582c-0.059021,0.2714844-0.1297607,0.5385742-0.2138062,0.7999878  C58.0639038,19.571228,57.855957,20.0625,57.604248,20.5270386c-0.2390137,0.44104-0.5200806,0.8551636-0.8292236,1.2459717  c-0.1706543,0.2155151-0.3509521,0.4224243-0.5410156,0.6207275c-0.1566162,0.1633301-0.3210449,0.3183594-0.4899292,0.4691162  c-1.5288086,1.3652344-3.5380249,2.2029419-5.7442017,2.2029419c-2.1581421,0-4.1292114-0.8005371-5.6452637-2.1132813  c-0.2130127-0.1843872-0.4162598-0.3788452-0.6102905-0.5828247c-0.5247803-0.5518188-0.982666-1.1678467-1.3482666-1.8426514  c-0.1507568-0.2781372-0.2824707-0.567749-0.4024658-0.8631592c-0.1079712-0.265686-0.2022095-0.5377197-0.2836914-0.8157349  C41.6273804,18.5662842,41.5599976,18.2786255,41.5062866,17.9856567z M34.9129639,43.6849976c0.0011597,0,0.0022583,0,0.0033569,0  h0.0005493c0.2235107,0,0.4486694-0.0210571,0.6721802-0.064209l1.8424072-0.3595581l12.512207-2.4421997l1.4806519-0.2889404  l1.479126-0.2886353l0.105957-0.020752c1.9008179-0.3706665,3.1455688-2.2183838,2.774353-4.1192627  c-0.1797485-0.9238892-0.7086182-1.72052-1.4881592-2.2449951c-0.7766724-0.5222168-1.7116699-0.7092285-2.6305542-0.5299683  l-7.3889771,1.4422607l-0.6184692,0.1207275l-0.5761719,0.1124268l-3.2409058,0.6326294l1.7512207-6.2322998h0.5881348h0.588562  l-1.3395996,4.767395l1.9853516-0.3875732c0.3496704-0.8040771,0.9135742-1.4978027,1.6581421-1.9990234  c1.0289917-0.6915283,2.2665405-0.9404907,3.4819946-0.7003784l10.0171509,1.9539795l-1.0212402-3.6343994h0.5881348h0.588562  l1.4328003,5.0993042l-4.4083862-0.8601074c0.5740356,0.6246948,0.9779053,1.3889771,1.1444092,2.2431641  c0.3688354,1.8896484-0.4705811,3.7389526-1.9776001,4.749939l7.6503296,1.4927368l1.8422241,0.359436  c0.2240601,0.0442505,0.4492188,0.0653076,0.6727295,0.0653076h0.0005493c0.0010986,0,0.0021973,0,0.0032959,0  c0.9758911,0,1.9152222-0.4116211,2.5785522-1.1307983c0.8320313-0.902832,1.1307983-2.1486816,0.7988892-3.3314819  l-4.8152466-17.135437c-0.2539673-0.9039917-0.843689-1.6541748-1.6613159-2.1144409  c-0.7401123-0.4153442-1.5853882-0.5328979-2.4088745-0.364563c-0.006897-0.0041504-0.0141602-0.0074463-0.0211792-0.0114746  c-0.0010986,0.0053711-0.0028687,0.0106201-0.0040894,0.0159302c-0.1539307,0.7158203-0.3918457,1.3988037-0.6934204,2.0473022  c-0.468811,1.0078125-1.098938,1.9244995-1.8656616,2.7113037c-0.1489868,0.152832-0.3065796,0.2962646-0.4650879,0.4391479  c-0.1546631,0.1394043-0.3110352,0.2761841-0.4743652,0.4055176c-1.6670532,1.3206787-3.7685547,2.1157837-6.055603,2.1157837  c-2.1696777,0-4.1696167-0.7191772-5.7932129-1.9196777c-0.1711426-0.1265259-0.3417358-0.2533569-0.5040894-0.390564  c-0.1699829-0.1435547-0.3338013-0.2938843-0.4935913-0.4486694c-0.8580322-0.8306274-1.5597534-1.8173218-2.0692749-2.9128418  c-0.1248779-0.2684326-0.2368164-0.543396-0.3373413-0.8244629c-0.041626-0.0132446-0.0779419-0.0354004-0.1204224-0.0473022  c-0.3158569-0.088501-0.6372681-0.1327515-0.9570313-0.1327515c-0.2446289,0-0.4857788,0.0420532-0.7247925,0.0932007  c-0.3410034,0.0730591-0.6750488,0.1814575-0.9879761,0.3571167c-0.817688,0.4602661-1.4074097,1.2104492-1.6613159,2.1133423  l-4.8152466,17.1376343c-0.3319092,1.1816406-0.0332031,2.4275513,0.7988281,3.3303833  C32.9977417,43.2733765,33.9371338,43.6849976,34.9129639,43.6849976z M70.1109619,32.8640137l2.3013916,1.2657471  l-1.1567993,2.361145l2.3279419,1.2391968l-0.7805786,1.7017212l1.4417114,0.6616211l1.4046021-3.0603638l-2.2947388-1.2215576  l1.1478882-2.3434448l-2.2858887-1.256897l1.1750488-2.3301392l-2.9453735-1.6508179l-0.7755737,1.3830566l1.6209106,0.9094849  L70.1109619,32.8640137z M47.6508789,32.1270752c-0.6893311,0-1.3619995,0.2036133-1.946228,0.5963745  c-0.3146362,0.2116089-0.5756226,0.477478-0.8021851,0.7681885l5.0404053-0.9836426l-1.6065674-0.3134155  C48.1078491,32.149231,47.8782349,32.1270752,47.6508789,32.1270752z M69.2531128,54.9456177  c-0.399292-0.3569336-0.8535767-0.6623535-1.3670654-0.8844604l-5.3223267-2.3027344  c0.0001221-0.0160522,0.0047607-0.0310059,0.0047607-0.0471802v-8.4295654l-9.6641235-1.8850708l-15.4729004,3.019165v7.2954712  c0,0.0161743,0.0046387,0.0311279,0.0047607,0.0471802l-5.3225098,2.3027344  c-0.5135498,0.2221069-0.9677734,0.5275269-1.3670654,0.8844604h-9.2672119v5.5888062h2.536438v31.2367554h5.2280884V60.5344238  h0.0603638l5.7774048,27.6283569c0.5028687,2.4042969,2.6228027,4.0562134,4.9855957,4.0562134  c0.3452148,0,0.6970825-0.0354004,1.0484009-0.1095581c2.7561035-0.5753174,4.5236816-3.2772827,3.9472046-6.0333862  l-5.0830078-24.3085327l2.8502197-1.2330933h14.3394775l2.8501587,1.2330933l-5.0829468,24.3085327  c-0.5764771,2.7561035,1.19104,5.4580688,3.9472046,6.0333862c0.3518677,0.0741577,0.7025757,0.1095581,1.0483398,0.1095581  c2.362793,0,4.4827271-1.6519165,4.9855957-4.0562134l5.7774658-27.6283569h0.0605469v31.2367554h5.2280884V60.5344238h2.536499  v-5.5888062H69.2531128z M25.7553711,40.0934448l1.4417114-0.6616211l-0.7805786-1.7017212l2.3279419-1.2391968l-1.1567993-2.361145  l2.3013916-1.2657471l-1.180542-2.3412476l1.6209106-0.9094849l-0.7755737-1.3830566l-2.9453735,1.6508179l1.1750488,2.3301392  l-2.2858887,1.256897l1.1478882,2.3434448l-2.2947388,1.2215576L25.7553711,40.0934448z"/></svg>