<svg xmlns="http://www.w3.org/2000/svg" data-name="Layer 1" viewBox="0 0 100 125" x="0px" y="0px"><title>73 all</title><path d="M69.22,12.59H42.14a3,3,0,0,0-.53.05l-.14,0-.37.12-.16.07a3,3,0,0,0-.35.19l-.1.06a3,3,0,0,0-.36.29L20.73,31.69l0,0-.11.12a3,3,0,0,0-.23.28l-.1.15a3,3,0,0,0-.17.32l-.07.15a3,3,0,0,0-.15.49s0,.07,0,.11a3,3,0,0,0,0,.44s0,.05,0,.08V76.41a11,11,0,0,0,11,11H69.22a11,11,0,0,0,11-11V23.59A11,11,0,0,0,69.22,12.59Zm-30,10v8.33H30.34Zm35,53.87a5,5,0,0,1-5,5H30.79a5,5,0,0,1-5-5V36.87H42.18a3,3,0,0,0,3-3V18.59h24a5,5,0,0,1,5,5Z"/><path d="M35.5,46.89H50a3,3,0,0,0,0-6H35.5a3,3,0,0,0,0,6Z"/><path d="M63,55a3,3,0,0,0-3-3H35.5a3,3,0,0,0,0,6H60A3,3,0,0,0,63,55Z"/><path d="M35,63.8a3,3,0,0,0-3,3v5.67a3,3,0,0,0,6,0V66.8A3,3,0,0,0,35,63.8Z"/><path d="M45,63.8a3,3,0,0,0-3,3v5.67a3,3,0,0,0,6,0V66.8A3,3,0,0,0,45,63.8Z"/><path d="M55,63.8a3,3,0,0,0-3,3v5.67a3,3,0,0,0,6,0V66.8A3,3,0,0,0,55,63.8Z"/><path d="M65,63.8a3,3,0,0,0-3,3v5.67a3,3,0,0,0,6,0V66.8A3,3,0,0,0,65,63.8Z"/></svg>