<svg xmlns="http://www.w3.org/2000/svg" xmlns:xlink="http://www.w3.org/1999/xlink" version="1.1" x="0px" y="0px" viewBox="0 0 114.323 312.14875" style="enable-background:new 0 0 114.323 249.719;" xml:space="preserve"><g><ellipse transform="matrix(0.5134 -0.8581 0.8581 0.5134 -17.2975 108.4588)" cx="86.99" cy="69.482" rx="22.493" ry="22.496"/><path d="M40.589,97.041c0.648-4.98,4.909-8.727,9.914-8.727c0.43,0,0.865,0.029,1.293,0.085c5.448,0.708,9.32,5.719,8.633,11.17   c-0.014,0.155-0.031,0.341-0.049,0.606c-0.037,0.539-0.083,1.441-0.083,2.673c0.009,1.873,0.122,4.358,0.474,7.33   c0.473-0.846,0.934-1.674,1.377-2.479c0.488-0.728,0.92-1.49,1.325-2.267c2.819,1.967,6.003,3.924,9.544,5.521   c4.043,1.808,8.563,3.206,13.555,3.222c0.019,0,0.039,0,0.059,0c3.295,0,6.808-0.688,10.093-2.336   c5.002-2.479,9.084-7.004,11.897-12.918c2.846-5.952,4.69-13.4,5.662-22.972c0.275-2.731-0.859-5.279-2.813-6.923   c0.09,4.438-1.016,8.951-3.457,13.034c-3.227,5.389-8.422,9.272-14.343,10.967c-0.394,0.722-0.787,1.342-1.171,1.851   c-1.113,1.505-2.06,2.207-2.928,2.651c-0.877,0.428-1.775,0.639-3,0.647c-1.811,0.017-4.319-0.6-6.989-1.812   c-4.013-1.791-8.251-4.809-11.321-7.364c-1.544-1.275-2.81-2.432-3.667-3.247c-0.431-0.407-0.758-0.731-0.969-0.942   c-0.107-0.106-0.183-0.184-0.228-0.229c-0.039-0.041-0.039-0.041-0.039-0.041c-0.038-0.04-0.08-0.074-0.119-0.113   c-0.767-0.95-1.664-1.788-2.734-2.451c-7.479-4.634-20.679-3.998-29.945,8.407c-12.641,17.132-18.044,29.188-22.366,51.131   c-1.532,12.883,4.405,18.666,11.29,21.852l15.219,28.155l-16.34,41.073c-2.552,6.414,0.579,13.684,6.993,16.236   c1.517,0.603,3.08,0.889,4.618,0.889c4.97,0,9.668-2.983,11.617-7.882l18.502-46.501c1.369-3.445,1.145-7.305-0.619-10.565   l-17.507-32.389c1.131-5.116,2.896-10.253,4.992-15.267c-5.76-15.259-6.682-27.73-6.659-34.275   C40.3,99.741,40.501,97.753,40.589,97.041z"/><path d="M78.982,178.215c1.895,0.001,3.795-0.668,5.32-2.028c3.297-2.942,3.586-7.999,0.646-11.296   c-24.324-27.311-26.61-52.782-26.65-62.044c0-1.263,0.045-2.214,0.086-2.811c0.021-0.299,0.039-0.51,0.052-0.625   c0.005-0.043,0.008-0.073,0.009-0.091c0.552-4.371-2.533-8.369-6.906-8.938c-4.381-0.567-8.395,2.521-8.964,6.903   c-0.039,0.303-0.276,2.266-0.276,5.562c-0.039,11.944,3.25,41.943,30.709,72.692C74.587,177.312,76.78,178.215,78.982,178.215z"/><path d="M7.858,35.871c2.907,4.457,9.21,6.747,13.926,8.146c0.626,0.186,1.268,0.351,1.909,0.515   c0.012,0.016,0.021,0.031,0.034,0.046c-1.19,1.53-1.406,3.222,0.71,4.803c0.094,0.07,0.199,0.125,0.295,0.192   c-0.064,0.297-0.131,0.594-0.166,0.909c-0.814,7.253,7.189,8.798,12.871,8.304c0.104,0.559,0.301,1.163,0.609,1.816   c2.22,4.701,8.607,6.266,11.912,1.877c0.434-0.576,0.256-1.12-0.379-1.414c-2.168-1.005-1.672-0.4-4.336-0.743   c-1.432-0.184-2.953,1.868-1,2.119c0.529,0.068,1.328,0.126,2.079,0.225c-1.864,0.918-3.987-0.811-5.217-2.6   c-0.439-0.639-0.698-1.208-0.813-1.717c3.51-0.7,7.17-1.917,9.666-4.535c0.59-0.619,0.057-1.456-0.715-1.492   c-3.748-0.174-10.57,0.589-11.729,4.38c-1.227,0.082-2.416,0.074-3.49,0.001c-3.783-0.258-6.172-2.807-6.393-5.688   c5.828,2.012,13.911,0.623,19.224-0.423c1.761-0.347,13.751-2.875,11.018-6.982c-0.572-0.86-1.355-1.548-2.264-2.112   c0.649-0.957,0.972-1.942,0.63-2.804c1.111-0.856,2.018-1.914,2.621-3.215c2.13-1.089,3.994-2.565,5.27-4.596   c0.949-1.513,1.813-3.345,2.067-5.035c4.876-2.322,7.152-6.867,5.541-12.138c-1.591-5.204-7.304-7.333-12.14-8.197   c-3.781-0.676-7.941-0.754-12.173-0.321c-1.417-1.344-3.012-2.473-4.7-3.309C26.948-5.927,4.239,12.147,0.308,27.101   C-1.202,32.842,3.086,34.957,7.858,35.871z M45.502,54.533c-1.383,0.815-3.004,1.365-4.677,1.717   C41.774,55.226,43.687,54.73,45.502,54.533z M45.841,7.788c3.449,3.836,5.417,9.119,4.562,13.766   c-3.118-0.947-6.704-1.377-10.249-1.401c-3.454-0.853-7.431-0.657-10.586-0.511c-2.387,0.111-6.244,0.454-10.141,1.298   c1.807-3.347,6.096-6.145,8.842-7.612C33.661,10.447,39.732,8.653,45.841,7.788z M56.345,34.605   c-0.402,0.185-0.824,0.346-1.249,0.503c0.278-2.423-0.535-4.522-2.015-6.231c0.964-0.061,1.926-0.149,2.884-0.265   C56.919,30.245,57.136,32.234,56.345,34.605z M31.098,32.285c1.757-1.292,3.554-2.343,4.864-3.015   c0.626-0.321,1.266-0.624,1.911-0.919c1.308,0.142,2.612,0.259,3.898,0.348c-0.69,0.823-1.474,1.542-1.99,2.016   c-0.304,0.278-0.626,0.533-0.958,0.773C36.368,32.08,33.695,32.375,31.098,32.285z M28.29,23.8   c4.001,0.046,8.171,0.417,12.109,1.396c-0.932,0.353-1.848,0.722-2.745,1.116c-3.347-0.491-6.598-1.279-9.547-2.447   C28.166,23.843,28.23,23.822,28.29,23.8z M48.724,25.664c-0.475-0.232-0.967-0.449-1.462-0.663c0.729-0.202,1.46-0.395,2.19-0.578   C49.241,24.848,48.998,25.262,48.724,25.664z M43.16,26.269c-0.047,0.193-0.113,0.388-0.195,0.582   c-0.405-0.024-0.809-0.051-1.214-0.083C42.219,26.597,42.688,26.43,43.16,26.269z M44.754,28.879   c0.179,0.009,0.358,0.017,0.538,0.025c-0.133,0.084-0.254,0.174-0.392,0.254c-0.175,0.103-0.374,0.196-0.56,0.295   C44.485,29.266,44.621,29.073,44.754,28.879z M50.815,26.877c-0.065-0.045-0.132-0.092-0.198-0.136   c0.406-0.551,0.779-1.142,1.121-1.771c0.955,0.48,1.809,1.032,2.535,1.657C53.15,26.735,51.995,26.819,50.815,26.877z    M45.647,23.399c-0.089-0.151-0.173-0.302-0.29-0.447c0.351,0.064,0.697,0.133,1.041,0.208   C46.146,23.239,45.896,23.319,45.647,23.399z M40.929,22.884c-0.805-0.203-1.62-0.386-2.448-0.55   c0.425,0.002,0.852,0.011,1.279,0.026C40.17,22.512,40.561,22.686,40.929,22.884z M24.034,23.851   c-0.188,0.436,0.023,0.932,0.543,1.178c3.031,1.438,6.396,2.309,9.826,2.866c-2.146,1.153-4.199,2.502-6.177,4.127   c-3.384-0.549-6.407-1.902-8.296-4.353c-0.924-1.198-1.324-2.39-1.348-3.549C20.48,23.952,22.347,23.893,24.034,23.851z    M31.61,34.197c-1.069,0.177-2.156,0.295-3.238,0.375c0.156-0.152,0.316-0.301,0.479-0.45   C29.777,34.186,30.701,34.209,31.61,34.197z M43.283,42.282c1.393-0.062,2.94-0.193,4.511-0.437   c-4.25,2.389-9.795,2.634-15.068,2.036c1.445-0.711,3.037-1.206,4.654-1.559C39.35,42.374,41.319,42.37,43.283,42.282z    M29.349,43.385c-0.228-0.041-0.457-0.079-0.682-0.122c0.584-0.329,1.156-0.615,1.605-0.853c0.303-0.16,0.615-0.304,0.923-0.454   c0.225,0.02,0.449,0.039,0.673,0.058C30.985,42.411,30.139,42.868,29.349,43.385z M25.349,39.003   c0.178-0.57,0.445-1.134,0.78-1.688c2.739,0.514,5.515,0.882,8.304,1.108c-1.174,0.416-2.303,0.855-3.371,1.303   C29.152,39.535,27.247,39.292,25.349,39.003z M27.432,41.552c-0.559,0.337-1.121,0.705-1.65,1.099   c-0.065-0.016-0.13-0.031-0.195-0.046c-0.215-0.403-0.341-0.866-0.413-1.363C25.925,41.351,26.677,41.457,27.432,41.552z    M43.087,45.506c2.889-0.556,5.667-1.54,7.848-3.226c0.254,0.058,0.502,0.12,0.744,0.186c-3.479,2.874-8.731,3.964-13.102,3.856   c-1.359-0.034-3.462-0.034-5.605-0.282C36.39,46.269,39.819,46.135,43.087,45.506z M50.636,39.401   c-0.279,0.081-0.566,0.154-0.857,0.222c-3.837-0.519-8.029-0.16-10.779,0.307c-0.439,0.074-0.891,0.163-1.348,0.258   c-0.484-0.024-0.936-0.048-1.338-0.067c-0.16-0.007-0.322-0.02-0.482-0.029c1.991-0.638,4.041-1.105,6.096-1.417   c2.052-0.038,4.098-0.168,6.129-0.384c1.045,0.047,2.148,0.158,3.07,0.379C50.982,38.92,50.815,39.163,50.636,39.401z    M51.075,36.183c-3.371-0.589-7.021-0.284-10.566,0.487c-2.881-0.136-5.586-0.416-7.779-0.652c2.59-0.584,5.063-1.486,7.318-2.814   c3.207-0.778,6.158-2.093,8.518-4.206c0.194,0.001,0.39,0,0.584,0c2.208,1.856,3.223,4.471,2.889,6.985   C51.719,36.05,51.402,36.125,51.075,36.183z M54.505,23.294c2.531-0.509,5.869-1.072,8.097,0.2   c0.484,0.276,0.763,0.665,0.905,1.116c-1.78,0.726-3.746,1.215-5.592,1.542C57.041,25.023,55.872,24.081,54.505,23.294z    M15.791,24.452c-0.009,1.282,0.307,2.58,1.081,3.836c2.032,3.296,5.542,4.87,9.329,5.52c-0.299,0.296-0.585,0.598-0.857,0.907   c-0.48,0.011-0.952,0.018-1.418,0.024c-5.24-1.034-10.658-2.75-14.394-5.852c0.563-1.759,2.003-3.023,3.825-3.948   C14.152,24.743,14.967,24.582,15.791,24.452z M15.109,34.524c-1.695-0.138-3.385-0.342-5.048-0.642   c-0.304-0.602-0.526-1.24-0.655-1.915C11.171,33.015,13.12,33.842,15.109,34.524z M11.976,36.419   c0.787,0.072,1.545,0.13,2.245,0.185c3.014,0.236,6.234,0.43,9.472,0.382c-0.313,0.537-0.582,1.078-0.783,1.622   c-1.674-0.288-3.342-0.606-4.998-0.955c-1.1-0.231-2.226,0.901-1.824,1.623C14.558,38.479,13.128,37.534,11.976,36.419z    M17.214,39.833c1.733,0.361,3.48,0.687,5.234,0.983c-0.015,0.328-0.002,0.652,0.039,0.972   C20.835,41.299,18.991,40.658,17.214,39.833z M25.784,46.262c0.101,0.061,0.215,0.118,0.322,0.177   c-0.084,0.121-0.168,0.244-0.246,0.369C25.798,46.638,25.769,46.457,25.784,46.262z M45.333,48.787   c-4.938,0.972-9.734,1.103-14.697,0.251c-0.553-0.095-1.607-0.287-2.594-0.634c0.123-0.31,0.273-0.616,0.452-0.918   c6.94,2.431,16.155,1.154,22.425-1.985c0.813-0.407,1.978-1.19,3.023-2.139c0.764,0.456,1.246,1.015,1.27,1.7   C55.285,47.191,46.757,48.507,45.333,48.787z M53.251,40.404c-0.003-0.001-0.006-0.002-0.008-0.003   c0.003-0.001,0.006-0.003,0.01-0.004C53.252,40.399,53.251,40.402,53.251,40.404z M54.737,37.262   c-0.044-0.022-0.088-0.045-0.134-0.066c0.012-0.033,0.023-0.067,0.034-0.1c0.119-0.033,0.24-0.064,0.359-0.1   C54.912,37.086,54.828,37.176,54.737,37.262z M60.321,31.811c-0.213,0.231-0.457,0.43-0.69,0.642   c0.149-1.622-0.053-3.066-0.573-4.331c1.44-0.286,2.86-0.65,4.244-1.116C62.622,28.943,61.05,31.02,60.321,31.811z M68.841,14.486   c1.616,4.23-0.016,7.017-2.849,8.851c-0.464-1.172-1.541-2.077-3.572-2.43c-3.002-0.523-6.169-0.229-9.289,0.42   c1.108-4.902-0.579-9.987-3.698-13.933c0.643-0.053,1.285-0.112,1.924-0.145C57.517,6.932,66.286,7.804,68.841,14.486z    M6.042,20.934c5.622-9.811,17.923-19.075,29.592-18.481c2.908,0.148,5.67,1.381,8.014,3.257   C34.9,7.229,26.22,10.876,20.251,16.122c-1.701,1.496-3.227,3.473-3.979,5.624c-1.466,0.438-2.877,0.961-4.16,1.586   c-0.874,0.263-1.731,0.543-2.555,0.855c-1.605,0.609-3.172,1.35-4.442,2.528c-0.351,0.325-0.739,0.832-0.363,1.308   c0.475,0.6,1.001,1.152,1.563,1.669c-0.17,1.032-0.101,2.166,0.268,3.414c-0.025-0.007-0.052-0.012-0.077-0.019   C0.114,31.329,3.813,24.823,6.042,20.934z"/></g></svg>