<svg xmlns="http://www.w3.org/2000/svg" xmlns:xlink="http://www.w3.org/1999/xlink" version="1.1" x="0px" y="0px" viewBox="0 0 107.187 317.3725" style="enable-background:new 0 0 107.187 253.898;" xml:space="preserve"><g><path d="M85.075,69.775c-2.321-1.172-4.45-1.723-6.146-1.965c-0.765-0.254-1.581-0.396-2.431-0.396H37.862   c-0.37,0-0.73,0.035-1.086,0.085c-0.371-0.016-0.745-0.016-1.125,0.021v-0.002l-0.013,0.002c-0.176,0.014-0.821,0.056-1.771,0.056   c-2.786,0.045-8.174-0.512-11.779-2.513c-1.831-0.99-3.208-2.177-4.237-3.817c-1.012-1.652-1.831-3.919-1.848-7.736   c-0.026-4.956,1.603-12.51,6.392-22.903c0.272-0.59,0.547-1.183,0.839-1.79C30.298,31.928,42.856,34,57.18,34   c22.091,0,40-4.926,40-11c0-4.055-7.984-7.596-19.86-9.504c0.048-0.436,0.076-0.879,0.076-1.33C77.396,5.447,71.948,0,65.229,0   H49.13c-6.719,0-12.166,5.447-12.166,12.166c0,0.451,0.028,0.892,0.076,1.33c-5.835,0.938-10.722,2.271-14.193,3.864   c-0.522-0.524-1.126-0.98-1.803-1.354c-0.092-0.05-0.178-0.106-0.273-0.154c-3.949-1.984-8.757-0.393-10.741,3.557   C3.075,33.29,0.03,44.236,0,53.51c-0.017,6.279,1.524,11.821,4.27,16.199c4.14,6.631,10.438,10.09,15.897,11.827   c3.688,1.175,7.134,1.678,9.967,1.892v158.107c0,6.83,5.537,12.363,12.363,12.363c6.828,0,12.365-5.533,12.365-12.363v-90.271   h4.635v90.271c0,6.83,5.537,12.363,12.363,12.363c6.828,0,12.365-5.533,12.365-12.363V91.783c0.593,1.216,1.191,2.611,1.781,4.238   c2.819,7.812,5.19,20.63,5.179,40.639c0,5.516-0.175,11.571-0.563,18.225c-0.259,4.41,3.108,8.195,7.519,8.452   c0.16,0.01,0.318,0.014,0.476,0.014c4.204,0,7.729-3.281,7.979-7.532c0.402-6.936,0.591-13.302,0.591-19.158   c-0.04-30.184-4.86-46.887-11.434-56.932C92.467,74.742,88.624,71.547,85.075,69.775z"/><path d="M35.242,34.226c-0.364,1.606-0.562,3.274-0.562,4.989c0,12.428,10.074,22.5,22.5,22.5c12.426,0,22.5-10.072,22.5-22.5   c0-1.716-0.198-3.384-0.562-4.989c-6.652,1.174-14.31,1.773-21.937,1.773C49.552,35.998,41.895,35.399,35.242,34.226z"/></g></svg>