<svg xmlns="http://www.w3.org/2000/svg" xmlns:xlink="http://www.w3.org/1999/xlink" version="1.1" x="0px" y="0px" viewBox="0 0 112.434 282.72875" style="enable-background:new 0 0 112.434 226.183;" xml:space="preserve"><g><path d="M0.151,137.759l4.228-0.048c0.036,0.747,0.066,1.48,0.108,2.24c0.23,4.263,3.761,7.565,7.98,7.565   c0.146,0,0.294-0.004,0.442-0.012c4.412-0.239,7.794-4.01,7.554-8.422c-0.029-0.528-0.049-1.033-0.075-1.554l3.765-0.043   l-0.137-11.999c-0.01-0.851-0.014-1.695-0.014-2.53c-0.038-19.863,2.445-32.427,5.173-39.982v25.907v18.939v86   c0,6.829,5.535,12.363,12.363,12.363c6.828,0,12.363-5.534,12.363-12.363v-78.273h4.637v78.273c0,6.829,5.535,12.363,12.363,12.363   c6.828,0,12.363-5.534,12.363-12.363v-86v-18.939V82.997c0.11,0.301,0.22,0.597,0.33,0.914c2.618,7.611,4.851,20.027,4.841,39.044   c0,0.836-0.004,1.691-0.012,2.562l-0.105,12.002l3.73,0.032c-0.025,0.514-0.045,1.011-0.073,1.532   c-0.238,4.412,3.144,8.183,7.557,8.422c0.147,0.008,0.294,0.012,0.439,0.012c4.22,0.001,7.751-3.304,7.981-7.569   c0.041-0.766,0.072-1.505,0.107-2.258l4.259,0.037l0.103-12.001c0.008-0.931,0.012-1.854,0.014-2.771   c-0.055-31.705-5.36-49.839-13.229-61.241c-0.685-0.985-1.4-1.891-2.127-2.76c-0.021-0.952-0.484-2.953-0.193-3.102   c0.395-0.203,2.626,2.415,2.967,2.167c0.356-0.258-2.155-3.809-1.863-4.12c0.296-0.314,2.281,0.876,2.506,0.504   c0.219-0.361,0.811-0.672,0.958-1.091c0.139-0.392,1.987-0.652,2.06-1.096c0.066-0.407-4.687-1.272-4.679-1.726   c0.007-0.412,1.1-0.679,1.057-1.13c-0.039-0.412,0.455-0.828,0.372-1.274c-0.081-0.437,1.544-1.254,1.436-1.676   c-0.11-0.43,1.258-1.418,1.122-1.831c-0.139-0.42-3.693,0.363-3.858-0.04c-0.167-0.409,0.307-1.056,0.114-1.448   c-0.194-0.395,1.815-2.046,1.596-2.424c-0.221-0.381-1.598-0.164-1.843-0.528c-0.245-0.364,0.594-1.645,0.326-1.992   c-0.268-0.347-0.682-0.763-0.971-1.095c-0.288-0.33-4,2.5-4.307,2.185c-0.306-0.313,0.83-2.017,0.506-2.315   c-0.322-0.295-1.672,0.667-2.011,0.386c-0.336-0.279-0.505-0.638-0.857-0.903c-0.349-0.263,1.172-3.118,0.809-3.368   c-0.36-0.247-2.871,2.803-3.244,2.568c-0.37-0.233-0.241-1.146-0.623-1.367c-0.378-0.219,0.611-2.894,0.222-3.101   c-0.385-0.205-1.794,1.575-2.19,1.38c-0.392-0.193,0.149-2.372-0.252-2.554c-0.398-0.181-1.646,1.562-2.051,1.391   c-0.403-0.17-1.398,1.236-1.808,1.076c-0.408-0.159-0.146-1.98-0.56-2.13c-0.412-0.149-1.191,0.846-1.607,0.706   c-0.319-0.108-0.288-1.256-0.445-1.844C76.794,39.717,67.29,46.999,56.238,46.999c-1.867,0-3.742-0.215-5.576-0.642   c-8.648-2.013-15.158-8.406-17.734-16.287c-0.25,0.263-0.437,0.686-0.748,0.791c-0.416,0.14-0.818,0.199-1.23,0.348   c-0.414,0.15-1.42-1.339-1.829-1.179c-0.41,0.16-1.358-0.958-1.762-0.788c-0.406,0.171,0.374,3.042-0.025,3.224   c-0.401,0.183-1.528-1.218-1.921-1.026c-0.396,0.195-0.006,1.874-0.392,2.079c-0.389,0.208-1.386-0.739-1.764-0.52   c-0.382,0.221-1.738-1.122-2.108-0.889c-0.373,0.235-0.895,0.375-1.255,0.622c-0.363,0.25,0.7,2.526,0.351,2.789   c-0.352,0.265-0.871,0.284-1.207,0.563c-0.339,0.281-1.5-0.355-1.822-0.06c-0.324,0.298-0.391,0.918-0.697,1.23   c-0.308,0.314-1.666-0.244-1.953,0.086c-0.288,0.331,0.363,1.535,0.096,1.882c-0.267,0.348-1.871-0.151-2.116,0.212   c-0.245,0.364,3.496,3.216,3.276,3.596c-0.22,0.378-0.452,0.569-0.646,0.964c-0.193,0.392-0.356,0.625-0.523,1.033   c-0.165,0.403-1.431,0.281-1.57,0.701c-0.136,0.413,0.666,0.998,0.556,1.427c-0.107,0.421-0.186,0.719-0.267,1.155   c-0.083,0.448-4.301,0.312-4.34,0.725c-0.043,0.454,0.384,1.135,0.392,1.548c0.009,0.455,3.565,0.565,3.633,0.974   c0.074,0.446-0.919,0.928-0.778,1.321c0.15,0.419-1.417,1.726-1.196,2.088c0.228,0.372,2.958-1.246,3.256-0.931   c0.294,0.31-2.108,3.799-1.75,4.056c0.343,0.247,1.797-0.857,2.194-0.656c0.375,0.191,1.446-1.245,1.865-1.093   c0.394,0.144,0.947-0.661,1.377-0.548c0.061,0.016,0.111,0.066,0.158,0.131c-3.886,3.73-7.531,8.905-10.338,15.706   C3.063,83.079,0.02,99.137,0,122.955c0,0.917,0.004,1.85,0.016,2.804L0.151,137.759z M56.218,64.707c-2.209,0-4-1.791-4-4   s1.791-4,4-4s4,1.791,4,4S58.427,64.707,56.218,64.707z M60.218,79.762c0,2.209-1.791,4-4,4s-4-1.791-4-4c0-2.209,1.791-4,4-4   S60.218,77.553,60.218,79.762z M52.218,98.818c0-2.209,1.791-4,4-4s4,1.791,4,4s-1.791,4-4,4S52.218,101.027,52.218,98.818z    M56.218,121.873c-0.867,0-1.663-0.282-2.318-0.751c-1.015-0.726-1.682-1.907-1.682-3.249s0.667-2.523,1.682-3.249   c0.655-0.469,1.452-0.751,2.318-0.751c0.867,0,1.663,0.282,2.318,0.751c1.015,0.726,1.682,1.907,1.682,3.249   s-0.667,2.523-1.682,3.249C57.881,121.591,57.085,121.873,56.218,121.873z"/><path d="M51.118,44.409C63.105,47.2,75.083,39.835,78.041,27.93c0.027-0.11,0.059-0.218,0.085-0.329   c2.818-12.1-4.707-24.193-16.806-27.01c-12.1-2.817-24.194,4.707-27.012,16.807c-0.909,3.905-0.736,7.807,0.315,11.399   C36.831,36.336,42.922,42.501,51.118,44.409z"/></g></svg>