<svg xmlns="http://www.w3.org/2000/svg" xmlns:xlink="http://www.w3.org/1999/xlink" version="1.1" x="0px" y="0px" viewBox="0 0 364.5 315.89" style="enable-background:new 0 0 364.5 252.712;" xml:space="preserve"><g><path d="M322.105,213.626c10.632-19.984,36.602-82.322-19.105-134.168c6,65.924-18,64.945-18,64.945s22-69.785-86.666-125.611   c34,57.609-1.334,108.686-1.334,108.686s14-44.02-40.666-94.02c4.491,37.859,7.667,62.417-24.725,85.328l12.115,23.912   c0.939,1.391,1.496,3.008,1.625,4.689c0.584,2.342,0.572,4.805-0.031,7.135l-0.006,0.025l-0.02,0.086   c-0.029,0.115-0.078,0.328-0.139,0.625c-0.133,0.623-0.332,1.648-0.543,3.008c-0.381,2.482-0.836,6.434-0.834,11.127   c0,0.122,0.003,0.253,0.004,0.377c0.065-0.043,0.123-0.086,0.189-0.129C156.725,161.384,174,142.126,169,123.126   c0,0,32,15.5,32.5,45.5c24-6.5,36.959-33.793,41.5-65.5c46,48.5,8.332,98.666,8.332,98.666s42.168-23.5,55.668-49   c11,15,4.5,55.834-6.975,60.334H164.061c5.871,4.352,13.031,7.787,21.742,10.451c2.566,0.771,4.751,2.206,6.449,4.049H364.5v-14   H322.105z"/><path d="M0,213.626v14h68.184c-1.771-4.644-2.871-9.329-3.289-14H0z"/><path d="M115.318,179.808c-0.172,0.105-0.355,0.221-0.551,0.346c-1.285,0.82-3.299,2.188-5.611,4.039   c-0.892,0.709-2.244,1.836-3.773,3.275c3.021,10.905,7.664,20.284,10.976,26.158H94.172c0.749,3.552,2.638,8.159,7.189,14h35.384   c-4.629-4.816-8.057-9.635-10.569-13.945C120.264,203.636,116.619,192.253,115.318,179.808z"/><path d="M32.456,24.565c0.413-0.266,0.669-0.717,0.688-1.207L33.781,6.14l9.973,14.737c0.283,0.418,0.767,0.669,1.272,0.658   c0.507-0.01,0.977-0.278,1.245-0.709l7.146-11.509l1.889,11.432c0.135,0.818,0.907,1.371,1.726,1.236   c0.816-0.135,1.37-0.907,1.236-1.724h-0.002L55.727,4.895c-0.104-0.616-0.576-1.104-1.188-1.226   c-0.614-0.123-1.238,0.148-1.567,0.679l-8.03,12.932L33.696,0.658c-0.362-0.536-1.033-0.778-1.654-0.601   c-0.624,0.179-1.063,0.74-1.086,1.386l-0.73,19.649l-16.326-6.756c-0.582-0.241-1.255-0.091-1.682,0.373   c-0.424,0.464-0.515,1.148-0.224,1.707l8.75,16.756l-16.895,0.92c-0.642,0.034-1.188,0.47-1.361,1.091   c-0.175,0.618,0.062,1.274,0.591,1.641l17.601,12.149l-9.674,8.5c-0.46,0.403-0.626,1.04-0.428,1.618   c0.2,0.578,0.728,0.973,1.34,1.006l14.585,0.77c0.027,0.001,0.055,0.002,0.081,0.002c0.79,0,1.452-0.62,1.495-1.42   c0.044-0.827-0.591-1.534-1.416-1.578L15.75,57.298l8.353-7.338c0.344-0.306,0.533-0.755,0.506-1.215   c-0.027-0.46-0.266-0.886-0.646-1.148L8.392,36.849l14.844-0.806c0.508-0.027,0.968-0.31,1.221-0.755   c0.252-0.445,0.262-0.983,0.025-1.437l-7.918-15.163l14.508,6C31.525,24.875,32.042,24.831,32.456,24.565z"/><ellipse transform="matrix(0.9291 -0.3698 0.3698 0.9291 -18.5959 30.7013)" cx="70.787" cy="63.858" rx="22.495" ry="22.496"/><path d="M185.219,225.489c-19.82-6.062-29.76-15.502-35.787-25.525c-5.961-10.043-7.668-21.441-7.654-30.57   c-0.002-4.668,0.436-8.682,0.857-11.434c0.213-1.375,0.418-2.438,0.563-3.111c0.07-0.334,0.125-0.574,0.158-0.707   c0.016-0.066,0.025-0.107,0.027-0.119c0.557-2.15,0.512-4.313-0.02-6.318c-0.074-1.383-0.514-2.764-1.361-3.984l-27.338-53.953   c1.863-1.295,3.981-2.918,6.149-4.891c3.096-2.838,6.303-6.402,8.838-10.865c2.527-4.443,4.352-9.882,4.346-15.971   c0.023-7.738-2.982-16.079-9.404-24.251c-6.436-8.218-16.236-16.552-30.646-25.331c-3.775-2.297-8.697-1.096-10.992,2.68   c-2.297,3.773-1.098,8.695,2.678,10.99c13.309,8.086,21.613,15.424,26.352,21.512c4.752,6.131,5.99,10.73,6.014,14.4   c-0.008,2.914-0.828,5.521-2.268,8.085c-2.137,3.819-5.803,7.29-8.977,9.63c-1.58,1.174-3.016,2.08-4.018,2.67   c-0.465,0.273-0.824,0.469-1.072,0.604c-0.607,0.223-1.199,0.518-1.756,0.904l-31.725,22.055c-0.529,0.367-0.99,0.795-1.396,1.258   c-1.426,1.178-5.117,4.115-9.383,6.805c-2.455,1.555-5.107,3.018-7.473,4.006c-2.354,1.012-4.437,1.453-5.361,1.422   c-0.166,0-0.293-0.01-0.383-0.02c-0.092-0.168-0.24-0.496-0.391-1.061c-0.234-0.881-0.441-2.314-0.439-4.305   c-0.002-2.809,0.406-6.705,1.434-11.686c0.891-4.33-1.896-8.559-6.225-9.447c-4.33-0.891-8.559,1.895-9.447,6.225   c-1.178,5.746-1.758,10.619-1.76,14.908c0.025,5.98,1.074,11.141,4.32,15.375c1.607,2.076,3.787,3.723,6.084,4.686   c2.299,0.978,4.641,1.324,6.807,1.324c4.533-0.037,8.504-1.355,12.254-2.969c5.484-2.438,10.625-5.768,14.455-8.533l26.941,38.752   c-3.35,2.277-7.834,5.654-12.463,10.145c-4.475,4.367-9.104,9.807-12.766,16.52c-3.648,6.686-6.301,14.791-6.297,23.84   c-0.053,12.686,5.359,26.334,16.9,39.266c2.471,2.791,5.91,4.215,9.363,4.215c2.947,0,5.902-1.035,8.281-3.139   c5.17-4.576,5.65-12.477,1.076-17.646c-8.539-9.75-10.566-16.943-10.619-22.695c0.006-4.168,1.174-8.043,3.258-11.896   c3.086-5.744,8.379-11.072,12.953-14.703c2.275-1.822,4.342-3.24,5.783-4.164c0.721-0.463,1.285-0.801,1.641-1.01   c0.176-0.104,0.303-0.176,0.369-0.213c0.016-0.01,0.027-0.018,0.037-0.021c0.014-0.006,0.018-0.008,0.018-0.008v-0.004   c0.447-0.244,0.867-0.52,1.273-0.809c0.768,10.861,3.514,23.758,10.877,36.271c8.955,15.359,25.188,29.369,50.119,36.758   c1.199,0.359,2.41,0.531,3.6,0.531c5.375,0,10.342-3.494,11.969-8.906C195.578,234.446,191.828,227.478,185.219,225.489z"/></g></svg>