<svg xmlns="http://www.w3.org/2000/svg" xmlns:xlink="http://www.w3.org/1999/xlink" version="1.1" x="0px" y="0px" viewBox="0 0 100 125" enable-background="new 0 0 100 100" xml:space="preserve"><path d="M24.044,15.386c0,0,1.256-3.806-2.058-4.589c-3.314-0.784-4.311-0.515-4.829-3.458c0,0-2.766,5.067,1.548,6.217  C21.462,14.036,22.635,12.606,24.044,15.386z"/><path d="M56.113,25.822c0.101,3.772,3.48,6.925,7.325,6.837c4.17-0.095,7.196-3.32,7.114-7.579  c-0.075-3.856-3.454-6.986-7.445-6.894C59.101,18.278,56.002,21.661,56.113,25.822z"/><path d="M83.432,40.415c-0.113-0.744-0.23-1.511-0.348-2.177c-1.78,0.218-6.003,1.118-9.417,1.845  c-2.232,0.475-3.995,0.851-4.544,0.924c-0.113,0.015-0.216,0.022-0.316,0.022c-0.457,0-0.829-0.157-1.207-0.508  c-1.466-1.365-2.968-2.742-4.42-4.073c-1.34-1.228-2.725-2.499-4.08-3.757c-1.766-1.641-3.746-2.171-6.18-1.658  c-0.506,0.013-0.98-0.023-1.426-0.093c0.445-0.08,0.888-0.166,1.328-0.26c0.632-0.135,1.235-0.201,1.813-0.201l-1.594-10.036  l7.976-12.909l-3.693-2.519L47.132,19.057l0.005,9.53c-0.876-0.931-1.278-1.773-1.278-1.773c-0.191-0.263-0.295-0.395-0.386-0.536  c-1.45-2.238-2.996-4.391-5.129-6.053c-2.346-1.828-4.859-2.492-7.795-1.503c-2.021,0.681-4.116,1.186-6.214,1.579  c-2.256,0.422-4.484,0.174-6.482-1.096c-0.708-0.45-1.352-1-2.024-1.504c-0.007,0.028-0.032,0.067-0.023,0.096  c0.679,2.292,1.541,4.506,2.972,6.445c1.127,1.527,2.553,2.551,4.549,2.702c0.976,0.074,1.951,0.357,2.893,0.652  c1.421,0.445,2.669,1.194,3.64,2.363c1.067,1.285,1.093,2.944-0.006,3.842c-0.38,0.311-0.763,0.512-1.23,0.666  c-1.893,0.624-4.585,0.454-5.833-1.307c-0.316-0.447-0.528-0.954-0.738-1.457c-0.038-0.091-0.586-1.276-0.647-1.225  c-0.856,0.723-1.452,1.718-1.843,2.837c-1.13,3.232-0.444,6.975,3.406,8.858c1.436,0.702,2.966,1.214,4.46,1.795  c1.24,0.482,2.51,0.912,3.498,1.849c0.933,0.884,1.49,1.976,1.102,3.261c-0.364,1.209-1.488,1.511-2.578,1.549  c-1.241,0.044-2.489-0.105-3.733-0.173c-0.16-0.009-0.32-0.035-0.553-0.062c0.08,0.156,0.106,0.229,0.15,0.29  c1.266,1.764,2.668,3.402,4.381,4.757c2.253,1.783,4.673,2.956,7.256,3.344c-0.32,1.17-0.639,2.388-0.93,3.498  c-0.502,1.914-0.899,3.427-1.08,3.876c-0.246,0.612-0.636,0.946-1.344,1.155c-3.054,0.9-6.155,1.64-9.154,2.357  c-3.086,0.737-6.277,1.499-9.414,2.434c-0.189,0.056-0.376,0.119-0.592,0.191c-0.066,0.022-0.134,0.045-0.206,0.069l1.033,4.487  l2.425-0.423c1.607-0.281,3.196-0.558,4.784-0.835c2.791-0.486,5.625-0.789,8.367-1.082c2.628-0.281,5.346-0.572,8.019-1.023  c0.604-0.102,0.889-0.315,1.131-0.844c1.141-2.502,2.331-5.031,3.482-7.478c0.338-0.719,0.676-1.438,1.014-2.157  c0.061-0.13,0.132-0.254,0.222-0.411c0.049-0.086,0.105-0.183,0.169-0.299l0.222-0.401l0.114,0.445  c0.179,0.7,0.348,1.388,0.515,2.067c0.361,1.474,0.703,2.867,1.118,4.256c1.249,4.176,1.659,8.535,2.055,12.75  c0.159,1.688,0.323,3.434,0.538,5.141c0.223,1.765,0.406,3.563,0.583,5.303c0.09,0.883,0.18,1.767,0.275,2.649  c0.014,0.129,0.042,0.257,0.075,0.405c0.005,0.024,0.011,0.048,0.016,0.072l5.075-0.496l-0.013-2.436  c-0.01-1.947-0.02-3.873-0.036-5.799c-0.035-4.172-0.074-8.619-0.132-13.088c-0.006-0.484-0.213-1.474-0.215-1.484l-2.113-12.876  c-0.013-0.079-0.021-0.16-0.024-0.24c-0.012-0.333-0.024-1.155,0.121-1.586c1.197-4.89,3.7-13.843,4.211-15.304l0.087-0.247  l0.202,0.167c0.049,0.041,0.236,0.188,0.521,0.413c1.215,0.959,4.444,3.508,5.996,4.898c0.202,0.181,0.579,0.313,0.762,0.268  c2.615-0.635,5.767-1.538,8.816-2.412c2.785-0.798,5.662-1.623,8.123-2.241C83.656,41.885,83.542,41.139,83.432,40.415z"/></svg>