<svg xmlns="http://www.w3.org/2000/svg" xmlns:xlink="http://www.w3.org/1999/xlink" version="1.1" x="0px" y="0px" viewBox="0 0 103.011 293.65749999999997" style="enable-background:new 0 0 103.011 234.926;" xml:space="preserve"><g><path d="M9.976,99.251v18.372v18.939v86.001c0,6.83,5.535,12.363,12.363,12.363s12.363-5.533,12.363-12.363v-78.272h6.035   l16.355,80.682c1.357,6.693,7.882,11.018,14.574,9.66c6.691-1.357,11.018-7.879,9.66-14.572l-17.262-85.149V90.521   c3.374,7.964,6.314,20.045,6.321,38.137c0,1.549-0.022,3.146-0.065,4.791c-0.121,4.415,3.362,8.093,7.78,8.212   c0.073,0.002,0.147,0.003,0.22,0.003c4.317,0,7.876-3.439,7.993-7.783c0.048-1.784,0.073-3.524,0.073-5.224   c0.01-26.205-5.702-42.838-12.046-53.067c-6.324-10.241-13.166-13.798-14.312-14.3c-0.384-0.176-0.777-0.31-1.171-0.421   c-0.79-0.273-1.635-0.428-2.518-0.428h-10.51C41.515,70.11,37.502,77.8,33.601,83.847C29.847,89.613,22.009,99.268,9.976,99.251z"/><path d="M37.569,44.416c0.369,0,0.735,0.023,1.098,0.063l20.203-7.907c0.019-0.077,0.042-0.151,0.059-0.228   c2.818-12.1-4.707-24.193-16.806-27.01c-12.1-2.817-24.194,4.707-27.012,16.807c-2.482,10.662,3.067,21.315,12.699,25.625   c0.199-0.451,0.397-0.903,0.595-1.356C29.999,46.768,33.595,44.416,37.569,44.416z"/><path d="M47.076,51.365c0.929-0.465,1.824-0.993,2.68-1.581l-2.838,1.111C46.977,51.05,47.025,51.208,47.076,51.365z"/><path d="M5.653,96.2c0.281,0.211,0.572,0.412,0.886,0.588c0,0,0.001,0,0.001,0c0.001,0.001,0.003,0.002,0.004,0.002   c0.252,0.142,0.51,0.259,0.771,0.367c0.2,0.092,0.387,0.2,0.594,0.282c0.657,0.261,1.355,0.448,2.066,0.59   c0.739,0.147,1.489,0.249,2.241,0.249c0.023,0,0.044,0,0.066,0c3.273-0.012,6.148-1.259,8.633-2.99   c3.746-2.653,7.12-6.561,11.003-12.526c3.52-5.454,7.385-12.676,11.723-22.32c0.414-0.919,0.83-1.853,1.252-2.816   c0.782-1.789,0.856-3.708,0.349-5.446c-0.055-0.188-0.119-0.372-0.187-0.555c-0.253-0.678-0.599-1.318-1.027-1.907   c-0.808-1.113-1.906-2.037-3.257-2.627c-0.253-0.111-0.509-0.208-0.767-0.291c-1.74-0.56-3.557-0.483-5.183,0.111   c-1.979,0.724-3.674,2.217-4.585,4.299c-0.193,0.441-0.381,0.862-0.572,1.292c-1.276,2.882-2.505,5.531-3.678,7.94   c-0.957,1.964-1.875,3.769-2.758,5.436c-3.016,5.692-5.6,9.713-7.668,12.349c-1.543,1.986-2.792,3.174-3.529,3.742   c-0.074-0.015-0.149-0.014-0.223-0.026c2.612-2.551,6.379-9.439,10.461-18.013c0.541-1.136,1.087-2.299,1.636-3.487h-6.204   c-0.319,0-0.633,0.025-0.942,0.063c-0.364-0.051-0.733-0.086-1.111-0.086v-0.002c-3.506-0.024-6.622,1.59-8.587,3.421   c-3.008,2.801-4.451,5.97-5.523,9.156C0.516,76.199,0.01,79.494,0,82.757c0.01,2.279,0.235,4.533,0.998,6.902   C1.701,91.727,2.905,94.258,5.653,96.2z"/><polygon points="54.569,45.324 73.553,37.895 72.029,33.999 57.94,39.513 47.406,43.636 48.93,47.531  "/><path d="M45.948,48.966l1.224-0.479l-1.524-3.896l-3.048,1.193C43.958,46.573,45.1,47.657,45.948,48.966z"/><path d="M73.821,31.999h1.19c0.002,0,0.002-3,0-7c0.025-1.757,0.584-2.827,1.807-3.666c1.234-0.834,3.301-1.339,6.194-1.333   c3.222,0.002,5.983-1.08,7.931-2.893c1.95-1.807,3.074-4.339,3.07-7.107c0.002-2.346,0.582-4.306,1.908-5.682   c1.324-1.376,3.506-2.313,7.09-2.319V0c-3.914-0.006-6.731,1.056-8.531,2.932C92.679,4.804,92.011,7.345,92.013,10   c-0.026,4.431-3.451,7.96-9.001,8c-3.106,0.004-5.538,0.5-7.304,1.667c-1.779,1.161-2.721,3.09-2.696,5.331c0,2.646,0,4.848,0,6.04   c0,0.61,0,0.961,0,0.961H73.821z"/><path d="M69.012,19.001c-0.002-1.186,0.128-2.011,0.335-2.52c0.217-0.511,0.435-0.737,0.863-0.962   c0.852-0.463,2.805-0.54,5.803-0.519c1.203-0.045,1.847,0.012,2.619-0.564c0.254-0.211,0.457-0.627,0.442-0.982   c-0.112-1.022-0.624-1.276-1.098-1.814c-0.505-0.484-1.124-1.02-1.728-1.619C75.027,8.815,73.99,7.393,74.013,6   c0.021-1.943,1.211-2.795,3.047-3.42c1.806-0.569,3.971-0.583,4.953-0.579V0c-1.018,0.002-3.354-0.012-5.549,0.671   C74.302,1.293,71.99,2.942,72.012,6c0.017,2.206,1.344,3.898,2.577,5.183c0.688,0.685,1.404,1.342,1.898,1.809   c-0.143,0.005-0.301,0.008-0.475,0.007c-2.253,0.004-3.967-0.01-5.378,0.287c-1.398,0.261-2.628,1.073-3.146,2.452   c-0.354,0.894-0.475,1.945-0.477,3.263c0,4.998,0,12.999,0,12.999h1.999C69.012,32,69.012,23.999,69.012,19.001z"/></g></svg>