<svg xmlns="http://www.w3.org/2000/svg" xmlns:xlink="http://www.w3.org/1999/xlink" version="1.1" x="0px" y="0px" viewBox="20.2 0.6 48.7 125" enable-background="new 20.2 0.6 48.7 100" xml:space="preserve"><circle cx="46.6" cy="13.2" r="7.6"/><path d="M62.2,56.2L57,25.3c-0.3-1.4-2.4-1.7-3.9-2c-0.6-0.1-3.5-0.7-3.8-0.8l0,0l0,0c-0.8-0.2-1.7-0.2-2.7-0.2  c-0.9,0-1.8,0.1-2.7,0.2l0,0l0,0c-0.9,0.1-2.9,0.7-3.2,0.8c-1.2,0.2-4,1-4.2,2.4L31,56.4c-0.3,1.4,0.5,2.8,1.7,3.1  c1.2,0.3,2.4-0.5,2.7-1.9l2.1-8.8c0,0,0,4.2,0,4.3l0.9,39c0,2.4,1.4,3.5,3,3.5c1.7,0,3-1,3-3.5l0.9-33.8c0.5,0,0.9,0,1.4,0  c0.5,0,0.9,0,1.4,0l0.8,33.8c0,2.4,1.4,3.5,3,3.5c1.7,0,3-1,3-3.5l1-39.4c0-0.1,0-4,0-4l2.1,8.8c0.3,1.4,1.5,2.2,2.7,1.9  C61.7,58.9,62.5,57.6,62.2,56.2z"/><g><path d="M59.4,17.2c-0.4,0-0.8-0.1-1.2-0.4c-0.9-0.6-2.3-2.8-2.6-3.3l-0.1-0.2l0.1-0.3c0.1-0.2,0.3-0.3,0.6-0.3   c0.8,0,3.2,0.9,3.8,1.4c1.1,0.7,1.1,1.8,0.6,2.5C60.4,17,59.9,17.2,59.4,17.2z M56.9,13.8c0.5,0.8,1.3,1.9,1.9,2.3   c0.5,0.3,0.9,0.3,1.2-0.1c0.3-0.5,0-0.9-0.4-1.1C59.1,14.6,57.8,14.1,56.9,13.8z"/></g><g><path d="M59.7,23.3c-0.3,0-0.9-0.1-1.4-0.7c-0.8-0.8-1.7-3.2-1.9-3.8l-0.1-0.2l0.2-0.3c0.1-0.1,0.2-0.2,0.5-0.2   c0.8,0,3.2,1.6,3.8,2.2c0.9,1,0.7,2,0.1,2.6C60.5,23.2,60.1,23.3,59.7,23.3z M57.7,19.4c0.3,0.9,0.9,2.2,1.3,2.6   c0.5,0.5,1,0.4,1.2,0.2c0.4-0.4,0.2-0.9-0.1-1.2C59.7,20.5,58.4,19.8,57.7,19.4z"/></g><g><path d="M64.7,23.3c-0.3,0-0.8-0.1-1.4-0.6c-0.8-0.8-1.8-3.1-2-3.7l-0.1-0.2l0.2-0.3c0.1-0.1,0.2-0.2,0.5-0.2c0.8,0,3.2,1.4,3.8,2   c0.4,0.4,0.7,0.9,0.7,1.3c0,0.4-0.2,0.9-0.5,1.2C65.5,23.1,65.1,23.3,64.7,23.3z M62.6,19.4c0.4,0.9,1,2.1,1.5,2.5   c0.4,0.4,0.8,0.5,1.2,0.1c0.1-0.2,0.2-0.3,0.2-0.5s-0.1-0.4-0.4-0.7C64.6,20.5,63.3,19.8,62.6,19.4z"/></g><g><path d="M29.6,34.2L29.6,34.2c-0.5,0-1-0.3-1.4-0.8c-0.5-0.7-0.5-1.8,0.6-2.5c0.7-0.5,3.1-1.4,3.8-1.4c0.4,0,0.5,0.2,0.6,0.3   l0.1,0.2l-0.1,0.3C33,31,31.6,33,30.7,33.6C30.4,34.1,30,34.2,29.6,34.2z M32.1,30.8c-0.9,0.2-2.2,0.7-2.7,1.1   c-0.3,0.2-0.7,0.6-0.4,1.1c0.1,0.2,0.3,0.3,0.5,0.3l0,0c0.2,0,0.4-0.1,0.6-0.2C30.7,32.6,31.5,31.6,32.1,30.8z"/></g><g><path d="M29.4,40.2L29.4,40.2c-0.4,0-0.8-0.1-1.1-0.4c-0.7-0.5-1-1.6-0.1-2.6c0.5-0.6,2.9-2.4,3.6-2.4H32l0.2,0.2   c0.1,0.1,0.2,0.3,0.1,0.5c-0.1,0.6-0.8,3.1-1.6,3.8C30.3,40,29.8,40.2,29.4,40.2z M31.2,36.1c-0.7,0.5-1.9,1.3-2.3,1.8   c-0.3,0.3-0.5,0.8,0,1.2c0.1,0.1,0.3,0.2,0.4,0.2l0,0c0.3,0,0.5-0.2,0.7-0.4C30.5,38.4,31,37.1,31.2,36.1z"/></g><g><path d="M24.3,39.9L24.3,39.9c-0.4,0-0.9-0.2-1.2-0.5c-0.3-0.3-0.5-0.8-0.5-1.2c0-0.5,0.2-0.9,0.7-1.3c0.6-0.6,3-2,3.8-2   c0.3,0,0.4,0.1,0.5,0.2l0.1,0.2l-0.1,0.3c-0.2,0.6-1.2,3-2,3.7C25.2,39.8,24.7,39.9,24.3,39.9z M26.3,36.1c-0.8,0.4-2,1.1-2.4,1.5   c-0.2,0.2-0.4,0.5-0.4,0.7s0.1,0.3,0.2,0.5c0.1,0.1,0.3,0.2,0.5,0.2l0,0c0.2,0,0.5-0.1,0.7-0.4C25.5,38.2,26,37,26.3,36.1z"/></g></svg>