<svg xmlns="http://www.w3.org/2000/svg" xmlns:xlink="http://www.w3.org/1999/xlink" version="1.1" x="0px" y="0px" viewBox="0 0 100 125" enable-background="new 0 0 100 100" xml:space="preserve"><path d="M74.784,35.385c0.008-0.171,0.014-0.341,0.014-0.515c0-5.666-2.775-10.977-7.351-14.263c0.011-0.17,0.016-0.341,0.016-0.515  C67.463,10.392,59.629,2.5,50,2.5s-17.463,7.892-17.463,17.592c0,0.173,0.005,0.344,0.014,0.515  c-4.573,3.287-7.349,8.595-7.349,14.263c0,0.173,0.006,0.343,0.014,0.515c-4.573,3.285-7.349,8.592-7.349,14.263  c0,9.701,7.834,17.593,17.464,17.593h29.338c9.63,0,17.464-7.893,17.464-17.593C82.133,43.98,79.357,38.669,74.784,35.385z"/><path d="M50,97.5c-1.544,0-2.794-1.258-2.794-2.814V64.427c0-1.557,1.25-2.815,2.794-2.815s2.794,1.259,2.794,2.815v30.259  C52.794,96.242,51.544,97.5,50,97.5z"/><path d="M94.706,97.5H5.294C3.75,97.5,2.5,96.242,2.5,94.686c0-1.556,1.25-2.814,2.794-2.814h89.412  c1.544,0,2.794,1.259,2.794,2.814C97.5,96.242,96.25,97.5,94.706,97.5z"/></svg>