<?xml version="1.0" encoding="utf-8"?>
<!-- Generator: Adobe Illustrator 21.1.0, SVG Export Plug-In . SVG Version: 6.00 Build 0)  -->
<svg version="1.1" id="Layer_1" xmlns="http://www.w3.org/2000/svg" xmlns:xlink="http://www.w3.org/1999/xlink" x="0px" y="0px"
	 viewBox="0 0 100 125" style="enable-background:new 0 0 100 125;" xml:space="preserve">
<style type="text/css">
	.st0{fill:#FFFFFF;}
	.st1{fill:none;}
</style>
<path class="st0" d="M71,38c-0.3,0-0.5,0-0.8,0c-0.2,0-0.5,0-0.7,0c-3.9-8.8-12.8-15-23.1-15c-14,0-25.3,11.3-25.3,25.3l0,0
	c-6.5,1.4-11.4,7.2-11.4,14.1c0,7.9,6.5,14.4,14.4,14.4h47.4c0.8,0,1.6-0.1,2.4-0.2c9.4-1.3,16.7-9.4,16.7-19.2
	C90.4,46.7,81.7,38,71,38z M73.1,72.5L73.1,72.5c-0.7,0.1-1.2,0.1-1.8,0.1H24c-5.6,0-10.1-4.5-10.1-10.1c0-4.8,3.4-8.9,8.1-9.9
	c2-0.4,3.4-2.2,3.4-4.2v-0.1c0-11.6,9.4-21,21-21c7.9,0,15.1,4.5,18.7,11.5c-9,2.6-15.6,10.9-15.6,20.7c0,1.2,1,2.1,2.1,2.1
	c1.2,0,2.1-1,2.1-2.1c0-9.1,7-16.5,15.9-17.2c0.1,0,0.1,0,0.2,0c0.2,0,0.4,0,0.6,0s0.4,0,0.6,0c8.4,0,15.2,6.8,15.2,15.2
	C86.1,65,80.5,71.4,73.1,72.5z"/>
<rect x="38.4" y="-0.7" class="st1" width="2.1" height="1.8"/>
<rect x="38.4" y="3.9" class="st1" width="2.1" height="1.8"/>
</svg>
