<?xml version="1.0" encoding="utf-8"?>
<!-- Generator: Adobe Illustrator 21.1.0, SVG Export Plug-In . SVG Version: 6.00 Build 0)  -->
<svg version="1.1" id="Layer_1" xmlns="http://www.w3.org/2000/svg" xmlns:xlink="http://www.w3.org/1999/xlink" x="0px" y="0px"
	 viewBox="0 0 100 125" style="enable-background:new 0 0 100 125;" xml:space="preserve">
<style type="text/css">
	.st0{fill:#FFFFFF;}
</style>
<path class="st0" d="M41.5,18c-0.1-0.5-0.1-1-0.1-1.6c0-4.8,3.9-8.6,8.6-8.6c4.8,0,8.6,3.9,8.6,8.6c0,0.4,0,0.8-0.1,1.2
	c0,0.1,0,0.3-0.1,0.4c0,0.1,0,0.2-0.1,0.3c-0.1,0.3-0.1,0.5-0.2,0.8c-0.2,0.5-0.4,1-0.6,1.5c-0.2,0.4-0.5,0.9-0.8,1.2
	c-0.2,0.2-0.4,0.4-0.5,0.6c-0.2,0.2-0.3,0.3-0.5,0.5c-1.5,1.4-3.5,2.2-5.7,2.2c-2.2,0-4.1-0.8-5.6-2.1c-0.2-0.2-0.4-0.4-0.6-0.6
	c-0.5-0.6-1-1.2-1.3-1.8c-0.2-0.3-0.3-0.6-0.4-0.9c-0.1-0.3-0.2-0.5-0.3-0.8C41.6,18.6,41.6,18.3,41.5,18z M34.9,43.7
	C34.9,43.7,34.9,43.7,34.9,43.7L34.9,43.7c0.2,0,0.5,0,0.7-0.1l1.8-0.4l12.5-2.4l1.5-0.3l1.5-0.3l0.1,0c1.9-0.4,3.1-2.2,2.8-4.1
	c-0.2-0.9-0.7-1.7-1.5-2.2c-0.8-0.5-1.7-0.7-2.6-0.5l-7.4,1.4l-0.6,0.1L43.1,35l-3.2,0.6l1.8-6.2h0.6h0.6l-1.3,4.8l2-0.4
	c0.3-0.8,0.9-1.5,1.7-2c1-0.7,2.3-0.9,3.5-0.7l10,2l-1-3.6h0.6h0.6l1.4,5.1l-4.4-0.9c0.6,0.6,1,1.4,1.1,2.2c0.4,1.9-0.5,3.7-2,4.7
	l7.7,1.5l1.8,0.4c0.2,0,0.4,0.1,0.7,0.1h0c0,0,0,0,0,0c1,0,1.9-0.4,2.6-1.1c0.8-0.9,1.1-2.1,0.8-3.3L63.6,21
	c-0.3-0.9-0.8-1.7-1.7-2.1c-0.7-0.4-1.6-0.5-2.4-0.4c0,0,0,0,0,0c0,0,0,0,0,0c-0.2,0.7-0.4,1.4-0.7,2c-0.5,1-1.1,1.9-1.9,2.7
	c-0.1,0.2-0.3,0.3-0.5,0.4c-0.2,0.1-0.3,0.3-0.5,0.4c-1.7,1.3-3.8,2.1-6.1,2.1c-2.2,0-4.2-0.7-5.8-1.9c-0.2-0.1-0.3-0.3-0.5-0.4
	c-0.2-0.1-0.3-0.3-0.5-0.4c-0.9-0.8-1.6-1.8-2.1-2.9c-0.1-0.3-0.2-0.5-0.3-0.8c0,0-0.1,0-0.1,0c-0.3-0.1-0.6-0.1-1-0.1
	c-0.2,0-0.5,0-0.7,0.1c-0.3,0.1-0.7,0.2-1,0.4c-0.8,0.5-1.4,1.2-1.7,2.1l-4.8,17.1c-0.3,1.2,0,2.4,0.8,3.3
	C33,43.3,33.9,43.7,34.9,43.7z M70.1,32.9l2.3,1.3l-1.2,2.4l2.3,1.2l-0.8,1.7l1.4,0.7l1.4-3.1l-2.3-1.2l1.1-2.3l-2.3-1.3l1.2-2.3
	l-2.9-1.7l-0.8,1.4l1.6,0.9L70.1,32.9z M47.7,32.1c-0.7,0-1.4,0.2-1.9,0.6c-0.3,0.2-0.6,0.5-0.8,0.8l5-1l-1.6-0.3
	C48.1,32.1,47.9,32.1,47.7,32.1z M69.3,54.9c-0.4-0.4-0.9-0.7-1.4-0.9l-5.3-2.3c0,0,0,0,0,0v-8.4l-9.7-1.9l-15.5,3v7.3c0,0,0,0,0,0
	l-5.3,2.3c-0.5,0.2-1,0.5-1.4,0.9h-9.3v5.6H24v31.2h5.2V60.5h0.1l5.8,27.6c0.5,2.4,2.6,4.1,5,4.1c0.3,0,0.7,0,1-0.1
	c2.8-0.6,4.5-3.3,3.9-6L40,61.8l2.9-1.2h14.3l2.9,1.2l-5.1,24.3c-0.6,2.8,1.2,5.5,3.9,6c0.4,0.1,0.7,0.1,1,0.1c2.4,0,4.5-1.7,5-4.1
	l5.8-27.6h0.1v31.2H76V60.5h2.5v-5.6H69.3z M25.8,40.1l1.4-0.7l-0.8-1.7l2.3-1.2l-1.2-2.4l2.3-1.3l-1.2-2.3l1.6-0.9l-0.8-1.4
	l-2.9,1.7l1.2,2.3l-2.3,1.3l1.1,2.3L24.4,37L25.8,40.1z"/>
</svg>
