<?xml version="1.0" encoding="utf-8"?>
<!-- Generator: Adobe Illustrator 21.1.0, SVG Export Plug-In . SVG Version: 6.00 Build 0)  -->
<svg version="1.1" id="Layer_1" xmlns="http://www.w3.org/2000/svg" xmlns:xlink="http://www.w3.org/1999/xlink" x="0px" y="0px"
	 viewBox="0 0 100 125" style="enable-background:new 0 0 100 125;" xml:space="preserve">
<style type="text/css">
	.st0{fill:#FFFFFF;}
</style>
<title>73 all</title>
<path class="st0" d="M69.2,12.6H42.1c-0.2,0-0.4,0-0.5,0.1h-0.1l-0.4,0.1l-0.2,0.1c-0.1,0.1-0.2,0.1-0.3,0.2l-0.1,0.1
	c-0.1,0.1-0.2,0.2-0.4,0.3L20.7,31.7l0,0l-0.1,0.1c-0.1,0.1-0.2,0.2-0.2,0.3l-0.1,0.2c-0.1,0.1-0.1,0.2-0.2,0.3L20,32.7
	c-0.1,0.2-0.1,0.3-0.1,0.5c0,0,0,0.1,0,0.1c0,0.1,0,0.3,0,0.4c0,0,0,0,0,0.1v42.6c0,6.1,4.9,11,11,11h38.3c6.1,0,11-4.9,11-11V23.6
	C80.2,17.5,75.3,12.6,69.2,12.6z M39.2,22.6v8.3h-8.9L39.2,22.6z M74.2,76.5c0,2.8-2.2,5-5,5H30.8c-2.8,0-5-2.2-5-5V36.9h16.4
	c1.7,0,3-1.3,3-3V18.6h24c2.8,0,5,2.2,5,5L74.2,76.5z"/>
<path class="st0" d="M35.5,46.9H50c1.7,0,3-1.3,3-3s-1.3-3-3-3H35.5c-1.7,0-3,1.3-3,3S33.8,46.9,35.5,46.9z"/>
<path class="st0" d="M63,55c0-1.7-1.3-3-3-3H35.5c-1.7,0-3,1.3-3,3s1.3,3,3,3H60C61.7,58,63,56.7,63,55L63,55z"/>
<path class="st0" d="M35,63.8c-1.7,0-3,1.3-3,3c0,0,0,0,0,0v5.7c0,1.7,1.3,3,3,3s3-1.3,3-3v-5.7C38,65.1,36.7,63.8,35,63.8L35,63.8z
	"/>
<path class="st0" d="M45,63.8c-1.7,0-3,1.3-3,3c0,0,0,0,0,0v5.7c0,1.7,1.3,3,3,3s3-1.3,3-3v-5.7C48,65.1,46.7,63.8,45,63.8L45,63.8z
	"/>
<path class="st0" d="M55,63.8c-1.7,0-3,1.3-3,3c0,0,0,0,0,0v5.7c0,1.7,1.3,3,3,3s3-1.3,3-3v-5.7C58,65.1,56.7,63.8,55,63.8L55,63.8z
	"/>
<path class="st0" d="M65,63.8c-1.7,0-3,1.3-3,3c0,0,0,0,0,0v5.7c0,1.7,1.3,3,3,3s3-1.3,3-3v-5.7C68,65.1,66.7,63.8,65,63.8
	C65,63.8,65,63.8,65,63.8z"/>
</svg>
