<?xml version="1.0" encoding="utf-8"?>
<!-- Generator: Adobe Illustrator 21.1.0, SVG Export Plug-In . SVG Version: 6.00 Build 0)  -->
<svg version="1.1" id="Layer_1" xmlns="http://www.w3.org/2000/svg" xmlns:xlink="http://www.w3.org/1999/xlink" x="0px" y="0px"
	 viewBox="0 0 114.3 312.1" style="enable-background:new 0 0 114.3 312.1;" xml:space="preserve">
<style type="text/css">
	.st0{fill:#FFFFFF;}
</style>
<g>
	<ellipse transform="matrix(0.5134 -0.8581 0.8581 0.5134 -17.3021 108.4553)" class="st0" cx="87" cy="69.5" rx="22.5" ry="22.5"/>
	<path class="st0" d="M40.6,97c0.6-5,4.9-8.7,9.9-8.7c0.4,0,0.9,0,1.3,0.1c5.4,0.7,9.3,5.7,8.6,11.2c0,0.2,0,0.3,0,0.6
		c0,0.5-0.1,1.4-0.1,2.7c0,1.9,0.1,4.4,0.5,7.3c0.5-0.8,0.9-1.7,1.4-2.5c0.5-0.7,0.9-1.5,1.3-2.3c2.8,2,6,3.9,9.5,5.5
		c4,1.8,8.6,3.2,13.6,3.2c0,0,0,0,0.1,0c3.3,0,6.8-0.7,10.1-2.3c5-2.5,9.1-7,11.9-12.9c2.8-6,4.7-13.4,5.7-23
		c0.3-2.7-0.9-5.3-2.8-6.9c0.1,4.4-1,9-3.5,13c-3.2,5.4-8.4,9.3-14.3,11c-0.4,0.7-0.8,1.3-1.2,1.9c-1.1,1.5-2.1,2.2-2.9,2.7
		c-0.9,0.4-1.8,0.6-3,0.6c-1.8,0-4.3-0.6-7-1.8c-4-1.8-8.3-4.8-11.3-7.4c-1.5-1.3-2.8-2.4-3.7-3.2c-0.4-0.4-0.8-0.7-1-0.9
		c-0.1-0.1-0.2-0.2-0.2-0.2c0,0,0,0,0,0c0,0-0.1-0.1-0.1-0.1c-0.8-0.9-1.7-1.8-2.7-2.5c-7.5-4.6-20.7-4-29.9,8.4
		c-12.6,17.1-18,29.2-22.4,51.1c-1.5,12.9,4.4,18.7,11.3,21.9l15.2,28.2l-16.3,41.1c-2.6,6.4,0.6,13.7,7,16.2
		c1.5,0.6,3.1,0.9,4.6,0.9c5,0,9.7-3,11.6-7.9l18.5-46.5c1.4-3.4,1.1-7.3-0.6-10.6L42,152.4c1.1-5.1,2.9-10.3,5-15.3
		c-5.8-15.3-6.7-27.7-6.7-34.3C40.3,99.7,40.5,97.8,40.6,97z"/>
	<path class="st0" d="M79,178.2c1.9,0,3.8-0.7,5.3-2c3.3-2.9,3.6-8,0.6-11.3c-24.3-27.3-26.6-52.8-26.7-62c0-1.3,0-2.2,0.1-2.8
		c0-0.3,0-0.5,0.1-0.6c0,0,0-0.1,0-0.1c0.6-4.4-2.5-8.4-6.9-8.9c-4.4-0.6-8.4,2.5-9,6.9c0,0.3-0.3,2.3-0.3,5.6
		c0,11.9,3.2,41.9,30.7,72.7C74.6,177.3,76.8,178.2,79,178.2z"/>
	<path class="st0" d="M7.9,35.9c2.9,4.5,9.2,6.7,13.9,8.1c0.6,0.2,1.3,0.4,1.9,0.5c0,0,0,0,0,0c-1.2,1.5-1.4,3.2,0.7,4.8
		c0.1,0.1,0.2,0.1,0.3,0.2c-0.1,0.3-0.1,0.6-0.2,0.9c-0.8,7.3,7.2,8.8,12.9,8.3c0.1,0.6,0.3,1.2,0.6,1.8c2.2,4.7,8.6,6.3,11.9,1.9
		c0.4-0.6,0.3-1.1-0.4-1.4c-2.2-1-1.7-0.4-4.3-0.7c-1.4-0.2-3,1.9-1,2.1c0.5,0.1,1.3,0.1,2.1,0.2c-1.9,0.9-4-0.8-5.2-2.6
		c-0.4-0.6-0.7-1.2-0.8-1.7c3.5-0.7,7.2-1.9,9.7-4.5c0.6-0.6,0.1-1.5-0.7-1.5c-3.7-0.2-10.6,0.6-11.7,4.4c-1.2,0.1-2.4,0.1-3.5,0
		c-3.8-0.3-6.2-2.8-6.4-5.7c5.8,2,13.9,0.6,19.2-0.4c1.8-0.3,13.8-2.9,11-7c-0.6-0.9-1.4-1.5-2.3-2.1c0.6-1,1-1.9,0.6-2.8
		c1.1-0.9,2-1.9,2.6-3.2c2.1-1.1,4-2.6,5.3-4.6c0.9-1.5,1.8-3.3,2.1-5c4.9-2.3,7.2-6.9,5.5-12.1c-1.6-5.2-7.3-7.3-12.1-8.2
		c-3.8-0.7-7.9-0.8-12.2-0.3c-1.4-1.3-3-2.5-4.7-3.3C26.9-5.9,4.2,12.1,0.3,27.1C-1.2,32.8,3.1,35,7.9,35.9z M45.5,54.5
		c-1.4,0.8-3,1.4-4.7,1.7C41.8,55.2,43.7,54.7,45.5,54.5z M45.8,7.8c3.4,3.8,5.4,9.1,4.6,13.8c-3.1-0.9-6.7-1.4-10.2-1.4
		c-3.5-0.9-7.4-0.7-10.6-0.5c-2.4,0.1-6.2,0.5-10.1,1.3c1.8-3.3,6.1-6.1,8.8-7.6C33.7,10.4,39.7,8.7,45.8,7.8z M56.3,34.6
		c-0.4,0.2-0.8,0.3-1.2,0.5c0.3-2.4-0.5-4.5-2-6.2c1-0.1,1.9-0.1,2.9-0.3C56.9,30.2,57.1,32.2,56.3,34.6z M31.1,32.3
		c1.8-1.3,3.6-2.3,4.9-3c0.6-0.3,1.3-0.6,1.9-0.9c1.3,0.1,2.6,0.3,3.9,0.3c-0.7,0.8-1.5,1.5-2,2c-0.3,0.3-0.6,0.5-1,0.8
		C36.4,32.1,33.7,32.4,31.1,32.3z M28.3,23.8c4,0,8.2,0.4,12.1,1.4c-0.9,0.4-1.8,0.7-2.7,1.1c-3.3-0.5-6.6-1.3-9.5-2.4
		C28.2,23.8,28.2,23.8,28.3,23.8z M48.7,25.7c-0.5-0.2-1-0.4-1.5-0.7c0.7-0.2,1.5-0.4,2.2-0.6C49.2,24.8,49,25.3,48.7,25.7z
		 M43.2,26.3c0,0.2-0.1,0.4-0.2,0.6c-0.4,0-0.8-0.1-1.2-0.1C42.2,26.6,42.7,26.4,43.2,26.3z M44.8,28.9c0.2,0,0.4,0,0.5,0
		c-0.1,0.1-0.3,0.2-0.4,0.3c-0.2,0.1-0.4,0.2-0.6,0.3C44.5,29.3,44.6,29.1,44.8,28.9z M50.8,26.9c-0.1,0-0.1-0.1-0.2-0.1
		c0.4-0.6,0.8-1.1,1.1-1.8c1,0.5,1.8,1,2.5,1.7C53.2,26.7,52,26.8,50.8,26.9z M45.6,23.4c-0.1-0.2-0.2-0.3-0.3-0.4
		c0.4,0.1,0.7,0.1,1,0.2C46.1,23.2,45.9,23.3,45.6,23.4z M40.9,22.9c-0.8-0.2-1.6-0.4-2.4-0.5c0.4,0,0.9,0,1.3,0
		C40.2,22.5,40.6,22.7,40.9,22.9z M24,23.9c-0.2,0.4,0,0.9,0.5,1.2c3,1.4,6.4,2.3,9.8,2.9c-2.1,1.2-4.2,2.5-6.2,4.1
		c-3.4-0.5-6.4-1.9-8.3-4.4c-0.9-1.2-1.3-2.4-1.3-3.5C20.5,24,22.3,23.9,24,23.9z M31.6,34.2c-1.1,0.2-2.2,0.3-3.2,0.4
		c0.2-0.2,0.3-0.3,0.5-0.5C29.8,34.2,30.7,34.2,31.6,34.2z M43.3,42.3c1.4-0.1,2.9-0.2,4.5-0.4c-4.2,2.4-9.8,2.6-15.1,2
		c1.4-0.7,3-1.2,4.7-1.6C39.3,42.4,41.3,42.4,43.3,42.3z M29.3,43.4c-0.2,0-0.5-0.1-0.7-0.1c0.6-0.3,1.2-0.6,1.6-0.9
		c0.3-0.2,0.6-0.3,0.9-0.5c0.2,0,0.4,0,0.7,0.1C31,42.4,30.1,42.9,29.3,43.4z M25.3,39c0.2-0.6,0.4-1.1,0.8-1.7
		c2.7,0.5,5.5,0.9,8.3,1.1c-1.2,0.4-2.3,0.9-3.4,1.3C29.2,39.5,27.2,39.3,25.3,39z M27.4,41.6c-0.6,0.3-1.1,0.7-1.6,1.1
		c-0.1,0-0.1,0-0.2,0c-0.2-0.4-0.3-0.9-0.4-1.4C25.9,41.4,26.7,41.5,27.4,41.6z M43.1,45.5c2.9-0.6,5.7-1.5,7.8-3.2
		c0.3,0.1,0.5,0.1,0.7,0.2c-3.5,2.9-8.7,4-13.1,3.9c-1.4,0-3.5,0-5.6-0.3C36.4,46.3,39.8,46.1,43.1,45.5z M50.6,39.4
		c-0.3,0.1-0.6,0.2-0.9,0.2c-3.8-0.5-8-0.2-10.8,0.3c-0.4,0.1-0.9,0.2-1.3,0.3c-0.5,0-0.9,0-1.3-0.1c-0.2,0-0.3,0-0.5,0
		c2-0.6,4-1.1,6.1-1.4c2.1,0,4.1-0.2,6.1-0.4c1,0,2.1,0.2,3.1,0.4C51,38.9,50.8,39.2,50.6,39.4z M51.1,36.2c-3.4-0.6-7-0.3-10.6,0.5
		c-2.9-0.1-5.6-0.4-7.8-0.7c2.6-0.6,5.1-1.5,7.3-2.8c3.2-0.8,6.2-2.1,8.5-4.2c0.2,0,0.4,0,0.6,0c2.2,1.9,3.2,4.5,2.9,7
		C51.7,36,51.4,36.1,51.1,36.2z M54.5,23.3c2.5-0.5,5.9-1.1,8.1,0.2c0.5,0.3,0.8,0.7,0.9,1.1c-1.8,0.7-3.7,1.2-5.6,1.5
		C57,25,55.9,24.1,54.5,23.3z M15.8,24.5c0,1.3,0.3,2.6,1.1,3.8c2,3.3,5.5,4.9,9.3,5.5c-0.3,0.3-0.6,0.6-0.9,0.9c-0.5,0-1,0-1.4,0
		c-5.2-1-10.7-2.8-14.4-5.9c0.6-1.8,2-3,3.8-3.9C14.2,24.7,15,24.6,15.8,24.5z M15.1,34.5c-1.7-0.1-3.4-0.3-5-0.6
		c-0.3-0.6-0.5-1.2-0.7-1.9C11.2,33,13.1,33.8,15.1,34.5z M12,36.4c0.8,0.1,1.5,0.1,2.2,0.2c3,0.2,6.2,0.4,9.5,0.4
		c-0.3,0.5-0.6,1.1-0.8,1.6c-1.7-0.3-3.3-0.6-5-1c-1.1-0.2-2.2,0.9-1.8,1.6C14.6,38.5,13.1,37.5,12,36.4z M17.2,39.8
		c1.7,0.4,3.5,0.7,5.2,1c0,0.3,0,0.7,0,1C20.8,41.3,19,40.7,17.2,39.8z M25.8,46.3c0.1,0.1,0.2,0.1,0.3,0.2
		c-0.1,0.1-0.2,0.2-0.2,0.4C25.8,46.6,25.8,46.5,25.8,46.3z M45.3,48.8c-4.9,1-9.7,1.1-14.7,0.3c-0.6-0.1-1.6-0.3-2.6-0.6
		c0.1-0.3,0.3-0.6,0.5-0.9c6.9,2.4,16.2,1.2,22.4-2c0.8-0.4,2-1.2,3-2.1c0.8,0.5,1.2,1,1.3,1.7C55.3,47.2,46.8,48.5,45.3,48.8z
		 M53.3,40.4C53.2,40.4,53.2,40.4,53.3,40.4C53.2,40.4,53.2,40.4,53.3,40.4C53.3,40.4,53.3,40.4,53.3,40.4z M54.7,37.3
		c0,0-0.1,0-0.1-0.1c0,0,0-0.1,0-0.1c0.1,0,0.2-0.1,0.4-0.1C54.9,37.1,54.8,37.2,54.7,37.3z M60.3,31.8c-0.2,0.2-0.5,0.4-0.7,0.6
		c0.1-1.6-0.1-3.1-0.6-4.3c1.4-0.3,2.9-0.6,4.2-1.1C62.6,28.9,61,31,60.3,31.8z M68.8,14.5c1.6,4.2,0,7-2.8,8.9
		c-0.5-1.2-1.5-2.1-3.6-2.4c-3-0.5-6.2-0.2-9.3,0.4c1.1-4.9-0.6-10-3.7-13.9c0.6-0.1,1.3-0.1,1.9-0.1C57.5,6.9,66.3,7.8,68.8,14.5z
		 M6,20.9C11.7,11.1,24,1.9,35.6,2.5c2.9,0.1,5.7,1.4,8,3.3c-8.7,1.5-17.4,5.2-23.4,10.4c-1.7,1.5-3.2,3.5-4,5.6
		c-1.5,0.4-2.9,1-4.2,1.6c-0.9,0.3-1.7,0.5-2.6,0.9c-1.6,0.6-3.2,1.4-4.4,2.5C4.8,27,4.4,27.5,4.8,28c0.5,0.6,1,1.2,1.6,1.7
		c-0.2,1-0.1,2.2,0.3,3.4c0,0-0.1,0-0.1,0C0.1,31.3,3.8,24.8,6,20.9z"/>
</g>
</svg>
