<?xml version="1.0" encoding="utf-8"?>
<!-- Generator: Adobe Illustrator 21.1.0, SVG Export Plug-In . SVG Version: 6.00 Build 0)  -->
<svg version="1.1" id="Layer_1" xmlns="http://www.w3.org/2000/svg" xmlns:xlink="http://www.w3.org/1999/xlink" x="0px" y="0px"
	 viewBox="0 0 100 125" style="enable-background:new 0 0 100 125;" xml:space="preserve">
<style type="text/css">
	.st0{fill:#FFFFFF;}
</style>
<g>
	<circle class="st0" cx="40.1" cy="29.5" r="5.8"/>
	<path class="st0" d="M48.2,33.1l-1.7-9.6c-0.1-0.9-0.4-1.7-1-2.4l-6-7.2c-1.2-1.5-1-3.7,0.5-4.9l0,0c1.5-1.2,3.7-1,4.9,0.5l7.4,8.8
		c0.6,0.7,0.9,1.5,1,2.4l2.5,13.6l-2-1.1c-1.4-0.7-3-1-4.7-0.4L48.2,33.1z"/>
	<path class="st0" d="M70.1,55.2l-12-2l1.8-5.7c1.2-4-0.7-8.3-3.3-11.6c-2.7-3.4-7.8-3.7-10.9-0.7L43.8,37l-9.7,1.5
		c-1.1,0.2-2.1,0-3-0.6l-9.8-5.7c-1.7-1-3.8-0.4-4.8,1.3l0,0c-1,1.7-0.4,3.8,1.3,4.8l11.9,6.9c0.9,0.5,2,0.7,3,0.6l15.1-2.7
		c0.5,1.8,0,4.7-2.2,11.1c-0.7,2,0.6,4.1,2.7,4.4v0.1L61,60.6c0.6,0.1,0.7,0.8,0.3,1.2l-8,6.6c-1.5,1.2-1.9,3.4-0.7,4.9
		c1.2,1.6,3.5,1.9,5,0.6l14.3-11.8C74.5,60,73.4,55.8,70.1,55.2z"/>
	<path class="st0" d="M33.6,92.7L33.6,92.7c-1.6-1.1-2-3.3-0.9-4.9l9-13.3c0.2-0.3,0.4-0.7,0.6-1.1l5.1-14l6.8,1.2l-5.6,16
		c-0.1,0.4-0.3,0.8-0.6,1.1l-9.5,14.1C37.4,93.3,35.2,93.8,33.6,92.7z"/>
</g>
</svg>
