<?xml version="1.0" encoding="utf-8"?>
<!-- Generator: Adobe Illustrator 21.1.0, SVG Export Plug-In . SVG Version: 6.00 Build 0)  -->
<svg version="1.1" id="Layer_1" xmlns="http://www.w3.org/2000/svg" xmlns:xlink="http://www.w3.org/1999/xlink" x="0px" y="0px"
	 viewBox="0 0 107.2 317.4" style="enable-background:new 0 0 107.2 317.4;" xml:space="preserve">
<style type="text/css">
	.st0{fill:#FFFFFF;}
</style>
<g>
	<path class="st0" d="M85.1,69.8c-2.3-1.2-4.4-1.7-6.1-2c-0.8-0.3-1.6-0.4-2.4-0.4H37.9c-0.4,0-0.7,0-1.1,0.1c-0.4,0-0.7,0-1.1,0v0
		l0,0c-0.2,0-0.8,0.1-1.8,0.1c-2.8,0-8.2-0.5-11.8-2.5c-1.8-1-3.2-2.2-4.2-3.8c-1-1.7-1.8-3.9-1.8-7.7c0-5,1.6-12.5,6.4-22.9
		c0.3-0.6,0.5-1.2,0.8-1.8c7.1,3.1,19.6,5.2,33.9,5.2c22.1,0,40-4.9,40-11c0-4.1-8-7.6-19.9-9.5c0-0.4,0.1-0.9,0.1-1.3
		C77.4,5.4,71.9,0,65.2,0H49.1C42.4,0,37,5.4,37,12.2c0,0.5,0,0.9,0.1,1.3c-5.8,0.9-10.7,2.3-14.2,3.9c-0.5-0.5-1.1-1-1.8-1.4
		c-0.1-0.1-0.2-0.1-0.3-0.2c-3.9-2-8.8-0.4-10.7,3.6C3.1,33.3,0,44.2,0,53.5c0,6.3,1.5,11.8,4.3,16.2c4.1,6.6,10.4,10.1,15.9,11.8
		c3.7,1.2,7.1,1.7,10,1.9v158.1c0,6.8,5.5,12.4,12.4,12.4c6.8,0,12.4-5.5,12.4-12.4v-90.3h4.6v90.3c0,6.8,5.5,12.4,12.4,12.4
		c6.8,0,12.4-5.5,12.4-12.4V91.8c0.6,1.2,1.2,2.6,1.8,4.2c2.8,7.8,5.2,20.6,5.2,40.6c0,5.5-0.2,11.6-0.6,18.2
		c-0.3,4.4,3.1,8.2,7.5,8.5c0.2,0,0.3,0,0.5,0c4.2,0,7.7-3.3,8-7.5c0.4-6.9,0.6-13.3,0.6-19.2c0-30.2-4.9-46.9-11.4-56.9
		C92.5,74.7,88.6,71.5,85.1,69.8z"/>
	<path class="st0" d="M35.2,34.2c-0.4,1.6-0.6,3.3-0.6,5c0,12.4,10.1,22.5,22.5,22.5s22.5-10.1,22.5-22.5c0-1.7-0.2-3.4-0.6-5
		C72.5,35.4,64.8,36,57.2,36C49.6,36,41.9,35.4,35.2,34.2z"/>
</g>
</svg>
