<svg xmlns="http://www.w3.org/2000/svg" xmlns:xlink="http://www.w3.org/1999/xlink" xml:space="preserve" style="shape-rendering:geometricPrecision;text-rendering:geometricPrecision;image-rendering:optimizeQuality;" viewBox="0 0 6.82666 8.533325000000001" x="0px" y="0px" fill-rule="evenodd" clip-rule="evenodd"><defs><style type="text/css">
   
    .fil1 {fill:white}
    .fil0 {fill:white;fill-rule:nonzero}
   
  </style></defs><g><path class="fil0" d="M0.88552 2.03107c-0.035378,0.0264016 -0.0426535,0.0764961 -0.016252,0.111874 0.0264016,0.035378 0.0764961,0.0426535 0.111874,0.016252 0.434264,-0.323752 0.899193,-0.216256 1.35604,-0.11063 0.247996,0.0573386 0.49376,0.114161 0.7395,0.107256 0.22411,-0.00629921 0.363591,-0.0646772 0.502516,-0.122819 0.12202,-0.0510669 0.243587,-0.101949 0.425287,-0.109063 0.317307,-0.0124252 0.644122,0.0867441 0.939173,0.176276 0.410693,0.124618 0.764488,0.231976 1.00217,0.0231575 0.0331339,-0.0289921 0.0364921,-0.0793661 0.0075,-0.1125 -0.0289921,-0.0331339 -0.0793661,-0.0364921 -0.1125,-0.0075 -0.171354,0.150543 -0.48585,0.0551142 -0.850921,-0.0556614 -0.307421,-0.0932835 -0.647929,-0.19661 -0.991677,-0.18315 -0.211079,0.00826772 -0.345433,0.0644961 -0.480287,0.120937 -0.125791,0.0526457 -0.252087,0.105508 -0.445642,0.110945 -0.224563,0.00631102 -0.460957,-0.0483465 -0.6995,-0.1035 -0.492543,-0.113878 -0.993799,-0.229776 -1.48728,0.138126z"/><path class="fil0" d="M0.88552 2.59557c-0.035378,0.0264016 -0.0426535,0.0764961 -0.016252,0.111874 0.0264016,0.035378 0.0764961,0.0426535 0.111874,0.016252 0.434264,-0.323752 0.899193,-0.216256 1.35604,-0.11063 0.247996,0.0573386 0.49376,0.114161 0.7395,0.107256 0.22411,-0.00629921 0.363591,-0.0646772 0.502516,-0.122819 0.12202,-0.0510669 0.243587,-0.101949 0.425287,-0.109063 0.317307,-0.0124252 0.644122,0.0867441 0.939173,0.176276 0.410693,0.124618 0.764488,0.231976 1.00217,0.0231575 0.0331339,-0.0289921 0.0364921,-0.0793661 0.0075,-0.1125 -0.0289921,-0.0331339 -0.0793661,-0.0364921 -0.1125,-0.0075 -0.171354,0.150543 -0.48585,0.0551142 -0.850921,-0.0556614 -0.307421,-0.0932835 -0.647929,-0.19661 -0.991677,-0.18315 -0.211079,0.00826772 -0.345433,0.0644961 -0.480287,0.120937 -0.125791,0.0526457 -0.252087,0.105508 -0.445642,0.110945 -0.224563,0.00631102 -0.460957,-0.0483465 -0.6995,-0.1035 -0.492543,-0.113878 -0.993799,-0.229776 -1.48728,0.138126z"/><path class="fil0" d="M0.88552 3.16006c-0.035378,0.0264016 -0.0426535,0.0764961 -0.016252,0.111874 0.0264016,0.035378 0.0764961,0.0426535 0.111874,0.016252 0.434264,-0.323752 0.899193,-0.216256 1.35604,-0.11063 0.247996,0.0573386 0.49376,0.114161 0.7395,0.107256 0.22411,-0.00629921 0.363591,-0.0646772 0.502516,-0.122819 0.12202,-0.0510669 0.243587,-0.101949 0.425287,-0.109063 0.317307,-0.0124252 0.644122,0.0867441 0.939173,0.176276 0.410693,0.124618 0.764488,0.231976 1.00217,0.0231575 0.0331339,-0.0289921 0.0364921,-0.0793661 0.0075,-0.1125 -0.0289921,-0.0331339 -0.0793661,-0.0364921 -0.1125,-0.0075 -0.171354,0.150543 -0.48585,0.0551142 -0.850921,-0.0556614 -0.307421,-0.0932835 -0.647929,-0.19661 -0.991677,-0.18315 -0.211079,0.00826772 -0.345433,0.0644961 -0.480287,0.120937 -0.125791,0.0526457 -0.252087,0.105508 -0.445642,0.110945 -0.224563,0.00631102 -0.460957,-0.0483465 -0.6995,-0.1035 -0.492543,-0.113878 -0.993799,-0.229776 -1.48728,0.138126z"/><path class="fil0" d="M0.88552 3.72456c-0.035378,0.0264016 -0.0426535,0.0764961 -0.016252,0.111874 0.0264016,0.035378 0.0764961,0.0426535 0.111874,0.016252 0.434264,-0.323752 0.899193,-0.216256 1.35604,-0.11063 0.247996,0.0573386 0.49376,0.114161 0.7395,0.107256 0.22411,-0.00629921 0.363591,-0.0646772 0.502516,-0.122819 0.12202,-0.0510669 0.243587,-0.101949 0.425287,-0.109063 0.317307,-0.0124252 0.644122,0.0867441 0.939173,0.176276 0.410693,0.124618 0.764488,0.231976 1.00217,0.0231575 0.0331339,-0.0289921 0.0364921,-0.0793661 0.0075,-0.1125 -0.0289921,-0.0331339 -0.0793661,-0.0364921 -0.1125,-0.0075 -0.171354,0.150543 -0.48585,0.0551142 -0.850921,-0.0556614 -0.307421,-0.0932835 -0.647929,-0.19661 -0.991677,-0.18315 -0.211079,0.00826772 -0.345433,0.0644961 -0.480287,0.120937 -0.125791,0.0526457 -0.252087,0.105508 -0.445642,0.110945 -0.224563,0.00631102 -0.460957,-0.0483465 -0.6995,-0.1035 -0.492543,-0.113878 -0.993803,-0.229776 -1.48728,0.138126z"/><path class="fil0" d="M0.88552 4.28906c-0.035378,0.0264016 -0.0426535,0.0764961 -0.016252,0.111874 0.0264016,0.035378 0.0764961,0.0426535 0.111874,0.016252 0.434264,-0.323752 0.899193,-0.216256 1.35604,-0.11063 0.247996,0.0573386 0.49376,0.114161 0.7395,0.107256 0.22411,-0.00629921 0.363591,-0.0646772 0.502516,-0.122819 0.12202,-0.0510669 0.243587,-0.101949 0.425287,-0.109063 0.317307,-0.0124252 0.644122,0.0867441 0.939173,0.176276 0.410693,0.124618 0.764488,0.231976 1.00217,0.0231575 0.0331339,-0.0289921 0.0364921,-0.0793661 0.0075,-0.1125 -0.0289921,-0.0331339 -0.0793661,-0.0364921 -0.1125,-0.0075 -0.171354,0.150543 -0.48585,0.0551142 -0.850921,-0.0556614 -0.307421,-0.0932835 -0.647929,-0.19661 -0.991677,-0.18315 -0.211079,0.00826772 -0.345433,0.0644961 -0.480287,0.120937 -0.125791,0.0526457 -0.252087,0.105508 -0.445642,0.110945 -0.224563,0.00631102 -0.460957,-0.0483465 -0.6995,-0.1035 -0.492543,-0.113878 -0.993799,-0.229776 -1.48728,0.138126z"/><path class="fil0" d="M0.88552 4.85355c-0.035378,0.0264016 -0.0426535,0.0764961 -0.016252,0.111874 0.0264016,0.035378 0.0764961,0.0426535 0.111874,0.016252 0.434264,-0.323752 0.899193,-0.216256 1.35604,-0.11063 0.247996,0.0573386 0.49376,0.114161 0.7395,0.107256 0.22411,-0.00629921 0.363591,-0.0646772 0.502516,-0.122819 0.12202,-0.0510669 0.243587,-0.101949 0.425287,-0.109063 0.317307,-0.0124252 0.644122,0.0867441 0.939173,0.176276 0.410693,0.124618 0.764488,0.231976 1.00217,0.0231575 0.0331339,-0.0289921 0.0364921,-0.0793661 0.0075,-0.1125 -0.0289921,-0.0331339 -0.0793661,-0.0364921 -0.1125,-0.0075 -0.171354,0.150543 -0.48585,0.0551142 -0.850921,-0.0556614 -0.307421,-0.0932835 -0.647929,-0.19661 -0.991677,-0.18315 -0.211079,0.00826772 -0.345433,0.0644961 -0.480287,0.120937 -0.125791,0.0526457 -0.252087,0.105508 -0.445642,0.110945 -0.224563,0.00631102 -0.460957,-0.0483465 -0.6995,-0.1035 -0.492543,-0.113878 -0.993799,-0.229776 -1.48728,0.138126z"/></g></svg>