<svg xmlns="http://www.w3.org/2000/svg" xmlns:xlink="http://www.w3.org/1999/xlink" version="1.1" x="0px" y="0px" viewBox="0 0 517.493 418.44875" style="enable-background:new 0 0 517.493 334.759;" xml:space="preserve"><g><path d="M444.541,197.772c-0.721,0-1.434-0.03-2.141-0.084v2.752c0.456,1.158,0.867,2.287,1.228,3.378   c2.543,7.688,3.197,14.435,3.127,19.597c1.978-4.247,3.804-12.047,3.162-26.178C448.178,197.581,446.382,197.772,444.541,197.772z"/><path d="M464.45,182.859l1.457-2.273l1.751,2.055c5.197,6.1,12.907,9.963,21.544,9.963c15.624-0.027,28.264-12.668,28.291-28.292   c0.002-12.098-7.595-22.414-18.273-26.461l-1.446-0.549l0.165-1.535c0.091-0.837,0.14-1.678,0.14-2.524   c-0.023-12.835-10.407-23.222-23.246-23.244c-1.495,0-2.957,0.146-4.38,0.417l-1.372,0.261l-0.717-1.195   c-5.972-9.929-16.835-16.57-29.261-16.57c-3.54,0.001-6.951,0.539-10.159,1.538c0.192,1.467,0.304,2.959,0.304,4.479   c0.001,1.685-0.123,3.34-0.359,4.96c16.03,2.862,28.19,16.858,28.194,33.705c-0.003,18.916-15.334,34.247-34.25,34.249   c-0.002,0-0.005,0-0.007,0c7.513,7.435,12.665,14.686,16.18,21.271c1.775,0.427,3.627,0.656,5.536,0.656   c1.767,0,3.483-0.204,5.139-0.571c-0.072-0.995-0.152-2.009-0.248-3.061l-0.96-10.526l7.737,7.203   c0.824,0.767,1.617,1.537,2.39,2.311C460.906,187.411,462.894,185.288,464.45,182.859z"/><path d="M389.143,175.707c-0.355-2.51-0.861-5.001-1.531-7.47c-0.185,0.093-0.374,0.181-0.56,0.271   C387.43,171.034,388.145,173.447,389.143,175.707z"/><path d="M269.396,161.522c-1.794-3.587-2.81-7.639-2.808-11.917c0-14.741,11.949-26.688,26.691-26.69   c0.695,0,1.382,0.035,2.064,0.088c2.927-6.203,7.662-11.381,13.526-14.863c-1.255-1.884-2.689-3.64-4.285-5.236   c-6.18-6.176-14.698-9.99-24.125-9.992c-12.426,0-23.291,6.642-29.262,16.57l-0.72,1.195l-1.368-0.261   c-1.423-0.271-2.885-0.417-4.38-0.417c-12.839,0.022-23.223,10.409-23.247,23.244c0,0.847,0.049,1.687,0.14,2.524l0.166,1.535   l-1.447,0.549c-10.679,4.047-18.278,14.363-18.273,26.461c0.024,14.005,10.185,25.605,23.543,27.881   c-0.147-4.863-0.787-10.273-1.519-16.445l-0.061-0.505l-1.123-9.481l7.044,6.444c6.216,5.686,10.98,11.256,14.619,16.561   c2.775-1.618,5.256-3.689,7.332-6.125l1.751-2.057l0.029,0.046c0.088-0.605,0.2-1.2,0.332-1.788   c-1.284-3.648-2.952-7.24-5.032-10.765l-6.238-10.568l10.917,5.608c2.459,1.264,4.792,2.541,7.03,3.828   C263.147,164.561,266.1,162.686,269.396,161.522z"/><path d="M373.102,171.821c4.319,5.747,7.461,11.257,9.719,16.392v-18.017C379.748,171.185,376.485,171.746,373.102,171.821z"/><path d="M422.832,167.84c16.706-0.029,30.219-13.543,30.248-30.248c0.005-15.52-11.697-28.308-26.749-30.039l-2.179-0.252   l0.451-2.145c0.42-2.013,0.645-4.095,0.645-6.229c0.002-12.491-7.572-23.206-18.372-27.826l-2.155-0.921l1.248-1.982   c2.384-3.798,3.765-8.276,3.765-13.093c-0.025-13.623-11.045-24.643-24.666-24.668c-12.584-0.004-22.964,9.432-24.471,21.603   l-0.279,2.25l-2.198-0.557c-2.705-0.687-5.534-1.054-8.455-1.054c-9.463,0.002-18.012,3.83-24.216,10.031   c-6.201,6.205-10.031,14.753-10.031,24.218c0,6.697,1.926,12.927,5.245,18.205l1.495,2.375l-2.005,0.468   c9.827,1.351,17.401,9.756,17.403,19.953c0,3.137-0.722,6.113-2.004,8.763c7.486,4.053,12.568,11.979,12.57,21.088   c0,0.273-0.015,0.543-0.024,0.814l1.234-1.257l1.427,1.452c0.441,0.448,0.9,0.877,1.367,1.298l-0.045-0.374l-1.278-10.797   l8.02,7.338c4.249,3.887,7.898,7.725,11.036,11.479c0.816,0.066,1.639,0.109,2.472,0.109c5.09-0.001,9.875-1.268,14.08-3.488   c-1.484-4.341-3.444-8.612-5.916-12.801l-7.104-12.034l12.432,6.386c13.581,6.977,24.125,14.311,32.325,21.563   C419.675,167.706,421.237,167.84,422.832,167.84z"/><path d="M305.659,207.865v10.439c1.21,4.958,1.561,9.346,1.513,12.88c1.745-3.744,3.354-10.63,2.771-23.133   c-0.407,0.02-0.815,0.031-1.227,0.031C307.679,208.082,306.663,207.994,305.659,207.865z"/><path d="M345.427,164.288l-2.18-0.252l0.45-2.144c0.278-1.328,0.426-2.702,0.426-4.112c0.002-8.247-4.998-15.318-12.127-18.368   l-2.154-0.92l1.247-1.982c1.563-2.49,2.466-5.42,2.468-8.58c-0.017-8.928-7.239-16.147-16.165-16.165   c-8.247-0.004-15.047,6.184-16.036,14.155l-0.277,2.249l-2.199-0.555c-1.792-0.456-3.668-0.698-5.6-0.698   c-12.532,0.021-22.668,10.159-22.692,22.689c0,4.44,1.274,8.563,3.476,12.062l1.493,2.375l-2.731,0.639   c-3.219,0.752-6.134,2.29-8.545,4.392c17.68,10.804,28.085,22.171,34.169,32.143c3.002,1.809,6.503,2.868,10.268,2.869   c0.327,0,0.651-0.013,0.975-0.028c-0.053-0.689-0.104-1.374-0.169-2.094l-0.843-9.244l6.795,6.325   c0.943,0.878,1.835,1.763,2.702,2.65c2.39-1.292,4.492-3.052,6.175-5.167l1.565-1.968l1.567,1.968   c3.665,4.606,9.294,7.556,15.633,7.556c1.352-0.002,2.671-0.142,3.947-0.399c7.869-9.944,7.596-21.104,5.836-36.949   C350.64,165.459,348.119,164.598,345.427,164.288z"/><path d="M453.455,189.771c3.981,43.763-11.949,43.112-11.949,43.112s14.604-46.325-57.53-83.383   c22.569,38.242-0.884,72.146-0.884,72.146s9.292-29.221-26.996-62.412c3.097,26.111,5.258,42.691-19.03,58.417   c-28.444,18.417-13.577,50.576-7.251,61.632h-5.323c0.11-0.212,0.224-0.433,0.338-0.658c-2.121-4.02-4.626-9.542-6.39-15.835   c-0.768,7.527-3.266,14.577-6.558,16.493H216.82c-2.173-5.064-4.007-11.408-2.957-16.587c0.466-2.297,1.624-5.336,6.486-8.484   c7.435-4.814,17.505-16.041,14.59-27.116c0,0,18.655,9.035,18.946,26.524c13.99-3.79,21.545-19.7,24.192-38.184   c26.814,28.273,4.858,57.517,4.858,57.517s24.581-13.699,32.451-28.563c0.314,0.428,0.596,0.901,0.862,1.397   c0.086-2.095,0.32-4.203,0.734-6.307c1.452-7.368,4.918-13.778,10.318-19.156c-3.139-6.309-7.73-12.62-14.246-18.686   c3.497,38.432-10.493,37.86-10.493,37.86s12.825-40.682-50.521-73.225c19.82,33.583-0.776,63.357-0.776,63.357   s8.16-25.661-23.707-54.808c2.72,22.93,4.617,37.49-16.712,51.3c-24.198,15.668-12.702,42.661-6.909,53.16h-4.037h-61.339   c1.697,2.998,3.66,5.872,5.904,8.626H483.09v-8.626h-12.626h-4.567C472.785,266.533,490.867,224.59,453.455,189.771z    M340.503,259.298c0.53-2.615,1.849-6.076,7.386-9.661c8.466-5.482,19.934-18.267,16.614-30.878c0,0,21.243,10.289,21.574,30.204   c15.931-4.315,24.534-22.434,27.549-43.48c30.534,32.195,5.531,65.495,5.531,65.495s27.991-15.6,36.953-32.525   c7.302,9.957,2.986,37.063-4.63,40.051H344.004C341.471,272.688,339.285,265.303,340.503,259.298z"/><path d="M75.643,279.284l-4.021,8.626h34.392c-1.249-2.818-2.343-5.698-3.286-8.626H75.643z"/><polygon points="0,279.284 0,287.91 35.211,287.91 39.232,279.284  "/><ellipse transform="matrix(0.9739 -0.2268 0.2268 0.9739 -29.9291 22.4846)" cx="82.885" cy="141.49" rx="22.495" ry="22.494"/><path d="M127.536,253.005c0-1.174,0.038-2.264,0.1-3.256c4.098-2.465,7.455-6.865,8.966-14.641   c2.586-22.213,1.123-35.346-5.682-55.52c-0.001-0.002-0.002-0.004-0.002-0.006c2.381,0.486,4.854,1.1,7.359,1.873   c10.187,3.139,20.657,8.736,28.275,18.67c1.576,2.053,3.952,3.131,6.354,3.131c1.699,0,3.412-0.539,4.864-1.652   c3.505-2.691,4.166-7.713,1.476-11.219c-10.234-13.322-23.973-20.449-36.265-24.223c-12.332-3.781-23.42-4.35-29.409-4.357   c-2.785,0-4.468,0.131-4.652,0.145c-0.014,0-0.026,0.004-0.04,0.004c-1.359,0.016-2.674,0.178-3.907,0.484   c-8.535,2.127-12.289,14.039-9.42,23.992c0.236,1.208,0.491,2.472,0.753,3.765c0.384-0.439,0.762-0.9,1.122-1.394   c2.411-3.252,3.759-7.027,3.901-7.439c0.014-0.049,0.027-0.1,0.046-0.145c1.358-4.189,5.163-6.963,9.522-6.963   c0.995,0,1.987,0.148,2.945,0.443c5.267,1.623,8.232,7.228,6.614,12.496c-0.387,1.217-1.474,4.338-3.57,8.18   c-3.418,6.17-7.458,10.764-12.365,14.057c-1.171,0.787-2.618,1.626-4.312,2.381c0.832,6.099,1.357,12.361,1.198,18.439   l-31.72,5.701c-3.99,0.717-7.407,3.348-9.118,7.021l-22.423,48.104c-2.917,6.258-0.208,13.693,6.05,16.611   c6.257,2.916,13.693,0.209,16.61-6.049v-0.002l19.684-42.227l22.081-3.969c0.294,9.682,2.445,22.445,9.489,35.846   c7.619,14.564,21.038,29.57,42.657,41.834c1.95,1.109,4.074,1.637,6.169,1.637c4.348,0,8.572-2.272,10.877-6.32   c3.414-6.002,1.317-13.633-4.684-17.047c-17.961-10.258-27.473-21.494-32.89-31.734   C128.806,269.412,127.541,259.851,127.536,253.005z"/><path d="M103.408,207.773c5.854-3.932,9.409-9.182,11.723-13.355c2.292-4.199,3.302-7.457,3.414-7.809   c1.298-4.223-1.072-8.699-5.292-9.998c-4.211-1.297-8.676,1.061-9.987,5.262l-0.001-0.002c0,0-0.003,0.004-0.012,0.033l0.002,0.002   v-0.002h0.001c0,0.002-0.001,0.002-0.001,0.002c-0.13,0.426-1.598,4.549-4.211,8.074c-1.349,1.848-2.966,3.496-4.648,4.568   c-1.711,1.074-3.368,1.662-5.597,1.678c-3.563,0.027-9.67-1.826-18.509-9.881c-3.266-2.978-8.326-2.742-11.303,0.524   c-2.977,3.266-2.744,8.322,0.524,11.301c10.494,9.574,20.169,14.029,29.287,14.059c0.027,0,0.056,0,0.083,0   C94.527,212.228,99.548,210.361,103.408,207.773z"/><path d="M136.931,135.999c2.384-10.814-19.584-8.205-19.584-8.205S135.295,143.417,136.931,135.999z"/><path d="M126.572,95.609c-8.132-7.518-16.969,12.764-16.969,12.764S132.151,100.765,126.572,95.609z"/><path d="M142.523,117.302c0,0,22.646,7.305,21.233-0.158C161.694,106.263,142.523,117.302,142.523,117.302z"/><path d="M250.071,48.423c-11.568-13.023-24.565,6.855-24.565,6.855s-20.993-11.107-24.816,5.887   c8.371-7.323,21.904-1.263,26.752,1.617C230.29,57.917,239.202,46.064,250.071,48.423z"/><path d="M267.441,78.283c2.849-4.865,11.761-16.719,22.63-14.359c-11.568-13.022-24.565,6.855-24.565,6.855   s-20.993-11.107-24.816,5.887C249.061,69.342,262.594,75.403,267.441,78.283z"/><path d="M307.071,4.423c-11.568-13.022-24.565,6.855-24.565,6.855s-20.993-11.107-24.816,5.887   c8.371-7.323,21.904-1.263,26.752,1.617C287.29,13.917,296.202,2.064,307.071,4.423z"/><path d="M463.634,46.788c0,0-19.122-24.343-35.832-14.094c15.799,0.633,28.892,15.477,33.089,21.343   c7.027-1.618,26.668-4.075,38.928,5.909C494.081,41.203,463.634,46.788,463.634,46.788z"/></g></svg>
