<svg xmlns="http://www.w3.org/2000/svg" xmlns:xlink="http://www.w3.org/1999/xlink" version="1.1" x="0px" y="0px" viewBox="0 0 100 125" style="enable-background:new 0 0 100 100;" xml:space="preserve"><path d="M50,15.7c-18.9,0-34.3,15.4-34.3,34.3c0,18.9,15.4,34.3,34.3,34.3c18.9,0,34.3-15.4,34.3-34.3C84.3,31.1,68.9,15.7,50,15.7z   M79.6,60.1c-4.1,1.4-8.4,2.4-12.7,3.2c0.5-3.9,0.8-7.9,0.9-11.9h13.4C81.2,54.5,80.6,57.4,79.6,60.1z M55.1,64.8  c-0.5-1.7-1.9-3-3.6-3.5v-9.8h13.4c-0.1,4.2-0.4,8.3-1,12.4C61,64.3,58.1,64.6,55.1,64.8z M39.9,79.6c-1.4-4.1-2.4-8.4-3.2-12.7  c2.7,0.4,5.4,0.6,8.2,0.8c0.5,1.8,1.9,3.3,3.7,3.8v9.7C45.5,81.2,42.6,80.6,39.9,79.6z M20.4,39.9c4.1-1.4,8.4-2.4,12.7-3.2  c-0.4,2.7-0.6,5.4-0.8,8.2c-1.8,0.5-3.3,1.9-3.8,3.7h-9.7C18.8,45.5,19.4,42.6,20.4,39.9z M60.1,20.4c1,3.2,1.9,6.4,2.6,9.6  c-1.1,0.6-1.9,1.5-2.4,2.7c-2.9-0.3-5.9-0.5-8.8-0.5V18.7C54.5,18.8,57.4,19.4,60.1,20.4z M51.5,35.1c2.9,0,5.7,0.2,8.5,0.5  c0.4,2.2,2.1,3.9,4.3,4.3c0.3,2.8,0.5,5.7,0.5,8.5H51.5V35.1z M67.7,34.7c0,0.7-0.3,1.3-0.8,1.7c-0.1,0.1-0.1,0.1-0.2,0.2  c-0.4,0.3-0.9,0.5-1.4,0.5c-0.5,0-1-0.2-1.4-0.4c-0.2-0.2-0.4-0.3-0.6-0.6c-0.3-0.4-0.4-0.9-0.4-1.4c0-0.5,0.2-1,0.5-1.4  c0.1-0.1,0.1-0.1,0.2-0.2c0.4-0.5,1.1-0.8,1.7-0.8c0.4,0,0.7,0.1,1,0.2c0.5,0.2,0.9,0.7,1.2,1.2C67.6,34,67.7,34.3,67.7,34.7z   M48.5,48.5h-9.8c-0.5-1.7-1.8-3.1-3.5-3.6c0.2-2.9,0.5-5.9,0.9-8.8c4.1-0.6,8.2-0.9,12.4-1V48.5z M48.1,67.9  c-0.3-0.4-0.5-0.9-0.5-1.5c0-0.6,0.2-1.1,0.6-1.5c0.1-0.1,0.2-0.2,0.3-0.3c0.4-0.3,0.9-0.5,1.5-0.5s1.1,0.2,1.5,0.5  c0.1,0.1,0.2,0.2,0.3,0.3c0.4,0.4,0.6,0.9,0.6,1.5c0,0.6-0.2,1.1-0.5,1.5c-0.1,0.1-0.2,0.3-0.4,0.4c-0.4,0.3-0.9,0.5-1.5,0.5  s-1.1-0.2-1.5-0.5C48.4,68.1,48.2,68,48.1,67.9z M36,50c0,0.6-0.2,1.1-0.5,1.5c-0.1,0.1-0.2,0.2-0.3,0.3c-0.4,0.4-0.9,0.6-1.5,0.6  c-0.6,0-1.1-0.2-1.5-0.5c-0.1-0.1-0.3-0.2-0.4-0.4c-0.3-0.4-0.5-0.9-0.5-1.5c0-0.6,0.2-1.1,0.5-1.5c0.1-0.1,0.2-0.3,0.4-0.4  c0.4-0.3,0.9-0.5,1.5-0.5c0.6,0,1.1,0.2,1.5,0.6c0.1,0.1,0.2,0.2,0.3,0.3C35.8,48.9,36,49.4,36,50z M18.7,51.5h9.7  c0.5,1.8,2,3.2,3.8,3.7c0.1,2.7,0.4,5.5,0.8,8.2c-4.3-0.8-8.5-1.9-12.7-3.2C19.4,57.4,18.8,54.5,18.7,51.5z M35.2,55.1  c1.7-0.5,3-1.9,3.5-3.6h9.8v9.8c-1.7,0.5-3.1,1.8-3.6,3.5c-2.9-0.2-5.9-0.5-8.8-0.9C35.7,61,35.4,58.1,35.2,55.1z M67.9,48.5  c0-3-0.2-5.9-0.5-8.8c1.2-0.5,2.1-1.3,2.7-2.4c3.2,0.7,6.4,1.6,9.6,2.6c0.9,2.7,1.5,5.6,1.7,8.6H67.9z M78.1,36.2  c-2.5-0.7-5-1.4-7.5-1.9c-0.2-2.7-2.3-4.8-5-5c-0.5-2.5-1.2-5-1.9-7.5C70,24.9,75.1,30,78.1,36.2z M48.5,32.1  c-4,0.1-7.9,0.4-11.9,0.9c0.8-4.3,1.9-8.5,3.2-12.7c2.7-0.9,5.6-1.5,8.6-1.7V32.1z M36.2,21.9c-1.2,3.8-2.1,7.7-2.8,11.6  c-3.9,0.7-7.8,1.6-11.6,2.8C24.9,30,30,24.9,36.2,21.9z M21.9,63.8c3.8,1.2,7.7,2.1,11.6,2.8c0.7,3.9,1.6,7.8,2.8,11.6  C30,75.1,24.9,70,21.9,63.8z M51.5,71.6c1.8-0.5,3.2-2,3.7-3.8c2.7-0.1,5.5-0.4,8.2-0.8c-0.8,4.3-1.9,8.5-3.2,12.7  c-2.7,0.9-5.6,1.5-8.6,1.7V71.6z M63.8,78.1c1.2-3.8,2.1-7.7,2.8-11.6c3.9-0.7,7.8-1.6,11.6-2.8C75.1,70,70,75.1,63.8,78.1z"/></svg>