<?xml version="1.0" encoding="utf-8"?>
<!-- Generator: Adobe Illustrator 21.1.0, SVG Export Plug-In . SVG Version: 6.00 Build 0)  -->
<svg version="1.1" id="Layer_1" xmlns="http://www.w3.org/2000/svg" xmlns:xlink="http://www.w3.org/1999/xlink" x="0px" y="0px"
	 viewBox="0 0 112.4 282.7" style="enable-background:new 0 0 112.4 282.7;" xml:space="preserve">
<style type="text/css">
	.st0{fill:#FFFFFF;}
</style>
<g>
	<path class="st0" d="M0.2,137.8l4.2,0c0,0.7,0.1,1.5,0.1,2.2c0.2,4.3,3.8,7.6,8,7.6c0.1,0,0.3,0,0.4,0c4.4-0.2,7.8-4,7.6-8.4
		c0-0.5,0-1-0.1-1.6l3.8,0l-0.1-12c0-0.9,0-1.7,0-2.5c0-19.9,2.4-32.4,5.2-40v25.9v18.9v86c0,6.8,5.5,12.4,12.4,12.4
		s12.4-5.5,12.4-12.4v-78.3h4.6v78.3c0,6.8,5.5,12.4,12.4,12.4s12.4-5.5,12.4-12.4v-86v-18.9V83c0.1,0.3,0.2,0.6,0.3,0.9
		c2.6,7.6,4.9,20,4.8,39c0,0.8,0,1.7,0,2.6l-0.1,12l3.7,0c0,0.5,0,1-0.1,1.5c-0.2,4.4,3.1,8.2,7.6,8.4c0.1,0,0.3,0,0.4,0
		c4.2,0,7.8-3.3,8-7.6c0-0.8,0.1-1.5,0.1-2.3l4.3,0l0.1-12c0-0.9,0-1.9,0-2.8c-0.1-31.7-5.4-49.8-13.2-61.2c-0.7-1-1.4-1.9-2.1-2.8
		c0-1-0.5-3-0.2-3.1c0.4-0.2,2.6,2.4,3,2.2c0.4-0.3-2.2-3.8-1.9-4.1c0.3-0.3,2.3,0.9,2.5,0.5c0.2-0.4,0.8-0.7,1-1.1
		c0.1-0.4,2-0.7,2.1-1.1c0.1-0.4-4.7-1.3-4.7-1.7c0-0.4,1.1-0.7,1.1-1.1c0-0.4,0.5-0.8,0.4-1.3c-0.1-0.4,1.5-1.3,1.4-1.7
		c-0.1-0.4,1.3-1.4,1.1-1.8c-0.1-0.4-3.7,0.4-3.9,0c-0.2-0.4,0.3-1.1,0.1-1.4c-0.2-0.4,1.8-2,1.6-2.4c-0.2-0.4-1.6-0.2-1.8-0.5
		s0.6-1.6,0.3-2c-0.3-0.3-0.7-0.8-1-1.1c-0.3-0.3-4,2.5-4.3,2.2c-0.3-0.3,0.8-2,0.5-2.3c-0.3-0.3-1.7,0.7-2,0.4
		c-0.3-0.3-0.5-0.6-0.9-0.9c-0.3-0.3,1.2-3.1,0.8-3.4c-0.4-0.2-2.9,2.8-3.2,2.6c-0.4-0.2-0.2-1.1-0.6-1.4c-0.4-0.2,0.6-2.9,0.2-3.1
		c-0.4-0.2-1.8,1.6-2.2,1.4c-0.4-0.2,0.1-2.4-0.3-2.6c-0.4-0.2-1.6,1.6-2.1,1.4c-0.4-0.2-1.4,1.2-1.8,1.1c-0.4-0.2-0.1-2-0.6-2.1
		c-0.4-0.1-1.2,0.8-1.6,0.7c-0.3-0.1-0.3-1.3-0.4-1.8C76.8,39.7,67.3,47,56.2,47c-1.9,0-3.7-0.2-5.6-0.6c-8.6-2-15.2-8.4-17.7-16.3
		c-0.2,0.3-0.4,0.7-0.7,0.8c-0.4,0.1-0.8,0.2-1.2,0.3c-0.4,0.1-1.4-1.3-1.8-1.2c-0.4,0.2-1.4-1-1.8-0.8c-0.4,0.2,0.4,3,0,3.2
		c-0.4,0.2-1.5-1.2-1.9-1c-0.4,0.2,0,1.9-0.4,2.1c-0.4,0.2-1.4-0.7-1.8-0.5c-0.4,0.2-1.7-1.1-2.1-0.9c-0.4,0.2-0.9,0.4-1.3,0.6
		c-0.4,0.2,0.7,2.5,0.4,2.8c-0.4,0.3-0.9,0.3-1.2,0.6c-0.3,0.3-1.5-0.4-1.8-0.1c-0.3,0.3-0.4,0.9-0.7,1.2c-0.3,0.3-1.7-0.2-2,0.1
		c-0.3,0.3,0.4,1.5,0.1,1.9c-0.3,0.3-1.9-0.2-2.1,0.2c-0.2,0.4,3.5,3.2,3.3,3.6c-0.2,0.4-0.5,0.6-0.6,1c-0.2,0.4-0.4,0.6-0.5,1
		c-0.2,0.4-1.4,0.3-1.6,0.7c-0.1,0.4,0.7,1,0.6,1.4c-0.1,0.4-0.2,0.7-0.3,1.2C13.3,48.8,9.1,48.6,9,49c0,0.5,0.4,1.1,0.4,1.5
		c0,0.5,3.6,0.6,3.6,1c0.1,0.4-0.9,0.9-0.8,1.3c0.1,0.4-1.4,1.7-1.2,2.1c0.2,0.4,3-1.2,3.3-0.9c0.3,0.3-2.1,3.8-1.8,4.1
		c0.3,0.2,1.8-0.9,2.2-0.7c0.4,0.2,1.4-1.2,1.9-1.1c0.4,0.1,0.9-0.7,1.4-0.5c0.1,0,0.1,0.1,0.2,0.1c-3.9,3.7-7.5,8.9-10.3,15.7
		C3.1,83.1,0,99.1,0,123c0,0.9,0,1.8,0,2.8L0.2,137.8z M56.2,64.7c-2.2,0-4-1.8-4-4s1.8-4,4-4s4,1.8,4,4S58.4,64.7,56.2,64.7z
		 M60.2,79.8c0,2.2-1.8,4-4,4s-4-1.8-4-4s1.8-4,4-4S60.2,77.6,60.2,79.8z M52.2,98.8c0-2.2,1.8-4,4-4s4,1.8,4,4s-1.8,4-4,4
		S52.2,101,52.2,98.8z M56.2,121.9c-0.9,0-1.7-0.3-2.3-0.8c-1-0.7-1.7-1.9-1.7-3.2s0.7-2.5,1.7-3.2c0.7-0.5,1.5-0.8,2.3-0.8
		c0.9,0,1.7,0.3,2.3,0.8c1,0.7,1.7,1.9,1.7,3.2s-0.7,2.5-1.7,3.2C57.9,121.6,57.1,121.9,56.2,121.9z"/>
	<path class="st0" d="M51.1,44.4c12,2.8,24-4.6,26.9-16.5c0-0.1,0.1-0.2,0.1-0.3c2.8-12.1-4.7-24.2-16.8-27
		c-12.1-2.8-24.2,4.7-27,16.8c-0.9,3.9-0.7,7.8,0.3,11.4C36.8,36.3,42.9,42.5,51.1,44.4z"/>
</g>
</svg>
