<?xml version="1.0" encoding="utf-8"?>
<!-- Generator: Adobe Illustrator 21.1.0, SVG Export Plug-In . SVG Version: 6.00 Build 0)  -->
<svg version="1.1" id="Layer_1" xmlns="http://www.w3.org/2000/svg" xmlns:xlink="http://www.w3.org/1999/xlink" x="0px" y="0px"
	 viewBox="0 0 364.5 315.9" style="enable-background:new 0 0 364.5 315.9;" xml:space="preserve">
<style type="text/css">
	.st0{fill:#FFFFFF;}
</style>
<g>
	<path class="st0" d="M322.1,213.6c10.6-20,36.6-82.3-19.1-134.2c6,65.9-18,64.9-18,64.9s22-69.8-86.7-125.6
		c34,57.6-1.3,108.7-1.3,108.7s14-44-40.7-94c4.5,37.9,7.7,62.4-24.7,85.3l12.1,23.9c0.9,1.4,1.5,3,1.6,4.7c0.6,2.3,0.6,4.8,0,7.1
		l0,0l0,0.1c0,0.1-0.1,0.3-0.1,0.6c-0.1,0.6-0.3,1.6-0.5,3c-0.4,2.5-0.8,6.4-0.8,11.1c0,0.1,0,0.3,0,0.4c0.1,0,0.1-0.1,0.2-0.1
		c12.8-8.3,30-27.5,25-46.5c0,0,32,15.5,32.5,45.5c24-6.5,37-33.8,41.5-65.5c46,48.5,8.3,98.7,8.3,98.7s42.2-23.5,55.7-49
		c11,15,4.5,55.8-7,60.3h-136c5.9,4.4,13,7.8,21.7,10.5c2.6,0.8,4.8,2.2,6.4,4h172.2v-14H322.1z"/>
	<path class="st0" d="M0,213.6v14h68.2c-1.8-4.6-2.9-9.3-3.3-14H0z"/>
	<path class="st0" d="M115.3,179.8c-0.2,0.1-0.4,0.2-0.6,0.3c-1.3,0.8-3.3,2.2-5.6,4c-0.9,0.7-2.2,1.8-3.8,3.3
		c3,10.9,7.7,20.3,11,26.2H94.2c0.7,3.6,2.6,8.2,7.2,14h35.4c-4.6-4.8-8.1-9.6-10.6-13.9C120.3,203.6,116.6,192.3,115.3,179.8z"/>
	<path class="st0" d="M32.5,24.6c0.4-0.3,0.7-0.7,0.7-1.2l0.6-17.2l10,14.7c0.3,0.4,0.8,0.7,1.3,0.7c0.5,0,1-0.3,1.2-0.7l7.1-11.5
		l1.9,11.4c0.1,0.8,0.9,1.4,1.7,1.2c0.8-0.1,1.4-0.9,1.2-1.7h0L55.7,4.9c-0.1-0.6-0.6-1.1-1.2-1.2c-0.6-0.1-1.2,0.1-1.6,0.7l-8,12.9
		L33.7,0.7c-0.4-0.5-1-0.8-1.7-0.6C31.4,0.2,31,0.8,31,1.4l-0.7,19.6l-16.3-6.8c-0.6-0.2-1.3-0.1-1.7,0.4c-0.4,0.5-0.5,1.1-0.2,1.7
		l8.8,16.8L3.8,34.1c-0.6,0-1.2,0.5-1.4,1.1c-0.2,0.6,0.1,1.3,0.6,1.6L20.7,49L11,57.5c-0.5,0.4-0.6,1-0.4,1.6c0.2,0.6,0.7,1,1.3,1
		l14.6,0.8c0,0,0.1,0,0.1,0c0.8,0,1.5-0.6,1.5-1.4c0-0.8-0.6-1.5-1.4-1.6l-10.9-0.6l8.4-7.3c0.3-0.3,0.5-0.8,0.5-1.2
		s-0.3-0.9-0.6-1.1L8.4,36.8L23.2,36c0.5,0,1-0.3,1.2-0.8c0.3-0.4,0.3-1,0-1.4l-7.9-15.2l14.5,6C31.5,24.9,32,24.8,32.5,24.6z"/>
	<ellipse transform="matrix(0.9291 -0.3698 0.3698 0.9291 -18.5956 30.704)" class="st0" cx="70.8" cy="63.9" rx="22.5" ry="22.5"/>
	<path class="st0" d="M185.2,225.5c-19.8-6.1-29.8-15.5-35.8-25.5c-6-10-7.7-21.4-7.7-30.6c0-4.7,0.4-8.7,0.9-11.4
		c0.2-1.4,0.4-2.4,0.6-3.1c0.1-0.3,0.1-0.6,0.2-0.7c0-0.1,0-0.1,0-0.1c0.6-2.1,0.5-4.3,0-6.3c-0.1-1.4-0.5-2.8-1.4-4l-27.3-54
		c1.9-1.3,4-2.9,6.1-4.9c3.1-2.8,6.3-6.4,8.8-10.9c2.5-4.4,4.4-9.9,4.3-16c0-7.7-3-16.1-9.4-24.3c-6.4-8.2-16.2-16.6-30.6-25.3
		c-3.8-2.3-8.7-1.1-11,2.7c-2.3,3.8-1.1,8.7,2.7,11c13.3,8.1,21.6,15.4,26.4,21.5c4.8,6.1,6,10.7,6,14.4c0,2.9-0.8,5.5-2.3,8.1
		c-2.1,3.8-5.8,7.3-9,9.6c-1.6,1.2-3,2.1-4,2.7c-0.5,0.3-0.8,0.5-1.1,0.6c-0.6,0.2-1.2,0.5-1.8,0.9L68.2,102c-0.5,0.4-1,0.8-1.4,1.3
		c-1.4,1.2-5.1,4.1-9.4,6.8c-2.5,1.6-5.1,3-7.5,4c-2.4,1-4.4,1.5-5.4,1.4c-0.2,0-0.3,0-0.4,0c-0.1-0.2-0.2-0.5-0.4-1.1
		c-0.2-0.9-0.4-2.3-0.4-4.3c0-2.8,0.4-6.7,1.4-11.7c0.9-4.3-1.9-8.6-6.2-9.4c-4.3-0.9-8.6,1.9-9.4,6.2c-1.2,5.7-1.8,10.6-1.8,14.9
		c0,6,1.1,11.1,4.3,15.4c1.6,2.1,3.8,3.7,6.1,4.7c2.3,1,4.6,1.3,6.8,1.3c4.5,0,8.5-1.4,12.3-3c5.5-2.4,10.6-5.8,14.5-8.5l26.9,38.8
		c-3.3,2.3-7.8,5.7-12.5,10.1c-4.5,4.4-9.1,9.8-12.8,16.5c-3.6,6.7-6.3,14.8-6.3,23.8c-0.1,12.7,5.4,26.3,16.9,39.3
		c2.5,2.8,5.9,4.2,9.4,4.2c2.9,0,5.9-1,8.3-3.1c5.2-4.6,5.7-12.5,1.1-17.6c-8.5-9.8-10.6-16.9-10.6-22.7c0-4.2,1.2-8,3.3-11.9
		c3.1-5.7,8.4-11.1,13-14.7c2.3-1.8,4.3-3.2,5.8-4.2c0.7-0.5,1.3-0.8,1.6-1c0.2-0.1,0.3-0.2,0.4-0.2c0,0,0,0,0,0c0,0,0,0,0,0v0
		c0.4-0.2,0.9-0.5,1.3-0.8c0.8,10.9,3.5,23.8,10.9,36.3c9,15.4,25.2,29.4,50.1,36.8c1.2,0.4,2.4,0.5,3.6,0.5c5.4,0,10.3-3.5,12-8.9
		C195.6,234.4,191.8,227.5,185.2,225.5z"/>
</g>
</svg>
