<?xml version="1.0" encoding="utf-8"?>
<!-- Generator: Adobe Illustrator 21.1.0, SVG Export Plug-In . SVG Version: 6.00 Build 0)  -->
<svg version="1.1" id="Layer_1" xmlns="http://www.w3.org/2000/svg" xmlns:xlink="http://www.w3.org/1999/xlink" x="0px" y="0px"
	 viewBox="0 0 100 125" style="enable-background:new 0 0 100 125;" xml:space="preserve">
<style type="text/css">
	.st0{fill:#FFFFFF;}
</style>
<path class="st0" d="M50,25.7c-13.4,0-24.3,10.9-24.3,24.3S36.6,74.3,50,74.3S74.3,63.4,74.3,50S63.4,25.7,50,25.7z M50,70.3
	c-11.2,0-20.3-9.1-20.3-20.3S38.8,29.7,50,29.7S70.3,38.8,70.3,50S61.2,70.3,50,70.3z"/>
<path class="st0" d="M48.5,36.6c-6.6,0-11.9,5.3-11.9,11.9c0,1.1,0.9,2,2,2s2-0.9,2-2c0-4.4,3.6-7.9,7.9-7.9c1.1,0,2-0.9,2-2
	S49.6,36.6,48.5,36.6z"/>
<path class="st0" d="M49.8,21.9h0.5c1.1,0,2-0.9,2-2V6.1c0-1.1-0.9-2-2-2h-0.5c-1.1,0-2,0.9-2,2v13.8C47.8,21,48.7,21.9,49.8,21.9z"
	/>
<path class="st0" d="M50.2,77.1h-0.5c-1.1,0-2,0.9-2,2v13.8c0,1.1,0.9,2,2,2h0.5c1.1,0,2-0.9,2-2V79.1C52.2,78,51.3,77.1,50.2,77.1z
	"/>
<path class="st0" d="M93.4,47.2H79.6c-1.1,0-2,0.9-2,2v0.5c0,1.1,0.9,2,2,2h13.8c1.1,0,2-0.9,2-2v-0.5
	C95.4,48.1,94.5,47.2,93.4,47.2z"/>
<path class="st0" d="M22.4,49.8v-0.5c0-1.1-0.9-2-2-2H6.6c-1.1,0-2,0.9-2,2v0.5c0,1.1,0.9,2,2,2h13.8C21.5,51.8,22.4,50.8,22.4,49.8
	z"/>
<path class="st0" d="M69.7,30.1c0.8,0.8,2.1,0.8,2.8,0l9.7-9.7c0.8-0.8,0.8-2.1,0-2.8l-0.4-0.4c-0.8-0.8-2.1-0.8-2.8,0L69.4,27
	c-0.8,0.8-0.8,2.1,0,2.8L69.7,30.1z"/>
<path class="st0" d="M30.3,68.9c-0.8-0.8-2.1-0.8-2.8,0l-9.7,9.7c-0.8,0.8-0.8,2.1,0,2.8l0.4,0.4c0.8,0.8,2.1,0.8,2.8,0l9.7-9.7
	c0.8-0.8,0.8-2.1,0-2.8L30.3,68.9z"/>
<path class="st0" d="M72.5,68.9c-0.8-0.8-2.1-0.8-2.8,0l-0.4,0.4c-0.8,0.8-0.8,2.1,0,2.8l9.7,9.7c0.8,0.8,2.1,0.8,2.8,0l0.4-0.4
	c0.8-0.8,0.8-2.1,0-2.8L72.5,68.9z"/>
<path class="st0" d="M27.5,30.1c0.8,0.8,2.1,0.8,2.8,0l0.4-0.4c0.8-0.8,0.8-2.1,0-2.8L21,17.2c-0.8-0.8-2.1-0.8-2.8,0l-0.4,0.4
	c-0.8,0.8-0.8,2.1,0,2.8L27.5,30.1z"/>
</svg>
