<?xml version="1.0" encoding="utf-8"?>
<!-- Generator: Adobe Illustrator 21.1.0, SVG Export Plug-In . SVG Version: 6.00 Build 0)  -->
<svg version="1.1" id="Layer_1" xmlns="http://www.w3.org/2000/svg" xmlns:xlink="http://www.w3.org/1999/xlink" x="0px" y="0px"
	 viewBox="0 0 48.7 125" style="enable-background:new 0 0 48.7 125;" xml:space="preserve">
<style type="text/css">
	.st0{fill:#FFFFFF;}
</style>
<circle class="st0" cx="26.4" cy="12.6" r="7.6"/>
<path class="st0" d="M42,55.6l-5.2-30.9c-0.3-1.4-2.4-1.7-3.9-2c-0.6-0.1-3.5-0.7-3.8-0.8l0,0l0,0c-0.8-0.2-1.7-0.2-2.7-0.2
	c-0.9,0-1.8,0.1-2.7,0.2l0,0l0,0c-0.9,0.1-2.9,0.7-3.2,0.8c-1.2,0.2-4,1-4.2,2.4l-5.5,30.7c-0.3,1.4,0.5,2.8,1.7,3.1
	s2.4-0.5,2.7-1.9l2.1-8.8c0,0,0,4.2,0,4.3l0.9,39c0,2.4,1.4,3.5,3,3.5c1.7,0,3-1,3-3.5l0.9-33.8c0.5,0,0.9,0,1.4,0s0.9,0,1.4,0
	l0.8,33.8c0,2.4,1.4,3.5,3,3.5c1.7,0,3-1,3-3.5l1-39.4c0-0.1,0-4,0-4l2.1,8.8c0.3,1.4,1.5,2.2,2.7,1.9C41.5,58.3,42.3,57,42,55.6z"
	/>
<g>
	<path class="st0" d="M39.2,16.6c-0.4,0-0.8-0.1-1.2-0.4c-0.9-0.6-2.3-2.8-2.6-3.3l-0.1-0.2l0.1-0.3c0.1-0.2,0.3-0.3,0.6-0.3
		c0.8,0,3.2,0.9,3.8,1.4c1.1,0.7,1.1,1.8,0.6,2.5C40.2,16.4,39.7,16.6,39.2,16.6z M36.7,13.2c0.5,0.8,1.3,1.9,1.9,2.3
		c0.5,0.3,0.9,0.3,1.2-0.1c0.3-0.5,0-0.9-0.4-1.1C38.9,14,37.6,13.5,36.7,13.2z"/>
</g>
<g>
	<path class="st0" d="M39.5,22.7c-0.3,0-0.9-0.1-1.4-0.7c-0.8-0.8-1.7-3.2-1.9-3.8L36.1,18l0.2-0.3c0.1-0.1,0.2-0.2,0.5-0.2
		c0.8,0,3.2,1.6,3.8,2.2c0.9,1,0.7,2,0.1,2.6C40.3,22.6,39.9,22.7,39.5,22.7z M37.5,18.8c0.3,0.9,0.9,2.2,1.3,2.6
		c0.5,0.5,1,0.4,1.2,0.2c0.4-0.4,0.2-0.9-0.1-1.2C39.5,19.9,38.2,19.2,37.5,18.8z"/>
</g>
<g>
	<path class="st0" d="M44.5,22.7c-0.3,0-0.8-0.1-1.4-0.6c-0.8-0.8-1.8-3.1-2-3.7L41,18.2l0.2-0.3c0.1-0.1,0.2-0.2,0.5-0.2
		c0.8,0,3.2,1.4,3.8,2c0.4,0.4,0.7,0.9,0.7,1.3s-0.2,0.9-0.5,1.2C45.3,22.5,44.9,22.7,44.5,22.7z M42.4,18.8c0.4,0.9,1,2.1,1.5,2.5
		c0.4,0.4,0.8,0.5,1.2,0.1c0.1-0.2,0.2-0.3,0.2-0.5s-0.1-0.4-0.4-0.7C44.4,19.9,43.1,19.2,42.4,18.8z"/>
</g>
<g>
	<path class="st0" d="M9.4,33.6L9.4,33.6c-0.5,0-1-0.3-1.4-0.8c-0.5-0.7-0.5-1.8,0.6-2.5c0.7-0.5,3.1-1.4,3.8-1.4
		c0.4,0,0.5,0.2,0.6,0.3l0.1,0.2L13,29.7c-0.2,0.7-1.6,2.7-2.5,3.3C10.2,33.5,9.8,33.6,9.4,33.6z M11.9,30.2
		c-0.9,0.2-2.2,0.7-2.7,1.1c-0.3,0.2-0.7,0.6-0.4,1.1c0.1,0.2,0.3,0.3,0.5,0.3l0,0c0.2,0,0.4-0.1,0.6-0.2C10.5,32,11.3,31,11.9,30.2
		z"/>
</g>
<g>
	<path class="st0" d="M9.2,39.6L9.2,39.6c-0.4,0-0.8-0.1-1.1-0.4c-0.7-0.5-1-1.6-0.1-2.6c0.5-0.6,2.9-2.4,3.6-2.4h0.2l0.2,0.2
		c0.1,0.1,0.2,0.3,0.1,0.5c-0.1,0.6-0.8,3.1-1.6,3.8C10.1,39.4,9.6,39.6,9.2,39.6z M11,35.5c-0.7,0.5-1.9,1.3-2.3,1.8
		c-0.3,0.3-0.5,0.8,0,1.2c0.1,0.1,0.3,0.2,0.4,0.2l0,0c0.3,0,0.5-0.2,0.7-0.4C10.3,37.8,10.8,36.5,11,35.5z"/>
</g>
<g>
	<path class="st0" d="M4.1,39.3L4.1,39.3c-0.4,0-0.9-0.2-1.2-0.5c-0.3-0.3-0.5-0.8-0.5-1.2c0-0.5,0.2-0.9,0.7-1.3c0.6-0.6,3-2,3.8-2
		c0.3,0,0.4,0.1,0.5,0.2l0.1,0.2L7.4,35c-0.2,0.6-1.2,3-2,3.7C5,39.2,4.5,39.3,4.1,39.3z M6.1,35.5c-0.8,0.4-2,1.1-2.4,1.5
		c-0.2,0.2-0.4,0.5-0.4,0.7s0.1,0.3,0.2,0.5c0.1,0.1,0.3,0.2,0.5,0.2l0,0c0.2,0,0.5-0.1,0.7-0.4C5.3,37.6,5.8,36.4,6.1,35.5z"/>
</g>
</svg>
