<?xml version="1.0" encoding="utf-8"?>
<!-- Generator: Adobe Illustrator 21.1.0, SVG Export Plug-In . SVG Version: 6.00 Build 0)  -->
<svg version="1.1" id="Layer_1" xmlns="http://www.w3.org/2000/svg" xmlns:xlink="http://www.w3.org/1999/xlink" x="0px" y="0px"
	 viewBox="0 0 100 125" style="enable-background:new 0 0 100 125;" xml:space="preserve">
<style type="text/css">
	.st0{fill:#FFFFFF;}
</style>
<path class="st0" d="M64.1,51.4V19.6c0-7.8-6.3-14.1-14.1-14.1s-14.1,6.3-14.1,14.1v31.8c-6.1,4.5-9.8,11.6-9.8,19.2
	c0,13.2,10.7,23.9,23.9,23.9s23.9-10.7,23.9-23.9C73.9,63,70.2,55.9,64.1,51.4z M50,89.5c-10.4,0-18.9-8.5-18.9-18.9
	c0-7.1,3.9-13.3,9.8-16.5V19.6c0-5,4.1-9.1,9.1-9.1s9.1,4.1,9.1,9.1v34.6c5.8,3.2,9.8,9.4,9.8,16.5C68.9,81.1,60.4,89.5,50,89.5z"/>
<path class="st0" d="M56.7,58.5l-2.6-1.4v-2.9V36.8h-8.2v17.4v2.9l-2.6,1.4c-4.4,2.4-7.2,7.1-7.2,12.1c0,7.7,6.2,13.9,13.9,13.9
	s13.9-6.2,13.9-13.9C63.9,65.6,61.1,61,56.7,58.5z"/>
</svg>
