<?xml version="1.0" encoding="utf-8"?>
<!-- Generator: Adobe Illustrator 21.1.0, SVG Export Plug-In . SVG Version: 6.00 Build 0)  -->
<svg version="1.1" id="Layer_1" xmlns="http://www.w3.org/2000/svg" xmlns:xlink="http://www.w3.org/1999/xlink" x="0px" y="0px"
	 viewBox="0 0 517.5 418.4" style="enable-background:new 0 0 517.5 418.4;" xml:space="preserve">
<style type="text/css">
	.st0{fill:#FFFFFF;}
</style>
<g>
	<path class="st0" d="M444.5,197.8c-0.7,0-1.4,0-2.1-0.1v2.8c0.5,1.2,0.9,2.3,1.2,3.4c2.5,7.7,3.2,14.4,3.1,19.6
		c2-4.2,3.8-12,3.2-26.2C448.2,197.6,446.4,197.8,444.5,197.8z"/>
	<path class="st0" d="M464.5,182.9l1.5-2.3l1.8,2.1c5.2,6.1,12.9,10,21.5,10c15.6,0,28.3-12.7,28.3-28.3c0-12.1-7.6-22.4-18.3-26.5
		l-1.4-0.5l0.2-1.5c0.1-0.8,0.1-1.7,0.1-2.5c0-12.8-10.4-23.2-23.2-23.2c-1.5,0-3,0.1-4.4,0.4l-1.4,0.3l-0.7-1.2
		c-6-9.9-16.8-16.6-29.3-16.6c-3.5,0-7,0.5-10.2,1.5c0.2,1.5,0.3,3,0.3,4.5c0,1.7-0.1,3.3-0.4,5c16,2.9,28.2,16.9,28.2,33.7
		c0,18.9-15.3,34.2-34.2,34.2c0,0,0,0,0,0c7.5,7.4,12.7,14.7,16.2,21.3c1.8,0.4,3.6,0.7,5.5,0.7c1.8,0,3.5-0.2,5.1-0.6
		c-0.1-1-0.2-2-0.2-3.1l-1-10.5l7.7,7.2c0.8,0.8,1.6,1.5,2.4,2.3C460.9,187.4,462.9,185.3,464.5,182.9z"/>
	<path class="st0" d="M389.1,175.7c-0.4-2.5-0.9-5-1.5-7.5c-0.2,0.1-0.4,0.2-0.6,0.3C387.4,171,388.1,173.4,389.1,175.7z"/>
	<path class="st0" d="M269.4,161.5c-1.8-3.6-2.8-7.6-2.8-11.9c0-14.7,11.9-26.7,26.7-26.7c0.7,0,1.4,0,2.1,0.1
		c2.9-6.2,7.7-11.4,13.5-14.9c-1.3-1.9-2.7-3.6-4.3-5.2c-6.2-6.2-14.7-10-24.1-10c-12.4,0-23.3,6.6-29.3,16.6l-0.7,1.2l-1.4-0.3
		c-1.4-0.3-2.9-0.4-4.4-0.4c-12.8,0-23.2,10.4-23.2,23.2c0,0.8,0,1.7,0.1,2.5l0.2,1.5l-1.4,0.5c-10.7,4-18.3,14.4-18.3,26.5
		c0,14,10.2,25.6,23.5,27.9c-0.1-4.9-0.8-10.3-1.5-16.4l-0.1-0.5l-1.1-9.5l7,6.4c6.2,5.7,11,11.3,14.6,16.6c2.8-1.6,5.3-3.7,7.3-6.1
		l1.8-2.1l0,0c0.1-0.6,0.2-1.2,0.3-1.8c-1.3-3.6-3-7.2-5-10.8l-6.2-10.6l10.9,5.6c2.5,1.3,4.8,2.5,7,3.8
		C263.1,164.6,266.1,162.7,269.4,161.5z"/>
	<path class="st0" d="M373.1,171.8c4.3,5.7,7.5,11.3,9.7,16.4v-18C379.7,171.2,376.5,171.7,373.1,171.8z"/>
	<path class="st0" d="M422.8,167.8c16.7,0,30.2-13.5,30.2-30.2c0-15.5-11.7-28.3-26.7-30l-2.2-0.3l0.5-2.1c0.4-2,0.6-4.1,0.6-6.2
		c0-12.5-7.6-23.2-18.4-27.8l-2.2-0.9l1.2-2c2.4-3.8,3.8-8.3,3.8-13.1c0-13.6-11-24.6-24.7-24.7c-12.6,0-23,9.4-24.5,21.6l-0.3,2.2
		l-2.2-0.6c-2.7-0.7-5.5-1.1-8.5-1.1c-9.5,0-18,3.8-24.2,10c-6.2,6.2-10,14.8-10,24.2c0,6.7,1.9,12.9,5.2,18.2l1.5,2.4l-2,0.5
		c9.8,1.4,17.4,9.8,17.4,20c0,3.1-0.7,6.1-2,8.8c7.5,4.1,12.6,12,12.6,21.1c0,0.3,0,0.5,0,0.8l1.2-1.3l1.4,1.5
		c0.4,0.4,0.9,0.9,1.4,1.3l0-0.4l-1.3-10.8l8,7.3c4.2,3.9,7.9,7.7,11,11.5c0.8,0.1,1.6,0.1,2.5,0.1c5.1,0,9.9-1.3,14.1-3.5
		c-1.5-4.3-3.4-8.6-5.9-12.8l-7.1-12l12.4,6.4c13.6,7,24.1,14.3,32.3,21.6C419.7,167.7,421.2,167.8,422.8,167.8z"/>
	<path class="st0" d="M305.7,207.9v10.4c1.2,5,1.6,9.3,1.5,12.9c1.7-3.7,3.4-10.6,2.8-23.1c-0.4,0-0.8,0-1.2,0
		C307.7,208.1,306.7,208,305.7,207.9z"/>
	<path class="st0" d="M345.4,164.3l-2.2-0.3l0.5-2.1c0.3-1.3,0.4-2.7,0.4-4.1c0-8.2-5-15.3-12.1-18.4l-2.2-0.9l1.2-2
		c1.6-2.5,2.5-5.4,2.5-8.6c0-8.9-7.2-16.1-16.2-16.2c-8.2,0-15,6.2-16,14.2l-0.3,2.2l-2.2-0.6c-1.8-0.5-3.7-0.7-5.6-0.7
		c-12.5,0-22.7,10.2-22.7,22.7c0,4.4,1.3,8.6,3.5,12.1l1.5,2.4l-2.7,0.6c-3.2,0.8-6.1,2.3-8.5,4.4c17.7,10.8,28.1,22.2,34.2,32.1
		c3,1.8,6.5,2.9,10.3,2.9c0.3,0,0.7,0,1,0c-0.1-0.7-0.1-1.4-0.2-2.1l-0.8-9.2l6.8,6.3c0.9,0.9,1.8,1.8,2.7,2.6
		c2.4-1.3,4.5-3.1,6.2-5.2l1.6-2l1.6,2c3.7,4.6,9.3,7.6,15.6,7.6c1.4,0,2.7-0.1,3.9-0.4c7.9-9.9,7.6-21.1,5.8-36.9
		C350.6,165.5,348.1,164.6,345.4,164.3z"/>
	<path class="st0" d="M453.5,189.8c4,43.8-11.9,43.1-11.9,43.1s14.6-46.3-57.5-83.4c22.6,38.2-0.9,72.1-0.9,72.1s9.3-29.2-27-62.4
		c3.1,26.1,5.3,42.7-19,58.4c-28.4,18.4-13.6,50.6-7.3,61.6h-5.3c0.1-0.2,0.2-0.4,0.3-0.7c-2.1-4-4.6-9.5-6.4-15.8
		c-0.8,7.5-3.3,14.6-6.6,16.5h-95.1c-2.2-5.1-4-11.4-3-16.6c0.5-2.3,1.6-5.3,6.5-8.5c7.4-4.8,17.5-16,14.6-27.1
		c0,0,18.7,9,18.9,26.5c14-3.8,21.5-19.7,24.2-38.2c26.8,28.3,4.9,57.5,4.9,57.5s24.6-13.7,32.5-28.6c0.3,0.4,0.6,0.9,0.9,1.4
		c0.1-2.1,0.3-4.2,0.7-6.3c1.5-7.4,4.9-13.8,10.3-19.2c-3.1-6.3-7.7-12.6-14.2-18.7c3.5,38.4-10.5,37.9-10.5,37.9
		s12.8-40.7-50.5-73.2c19.8,33.6-0.8,63.4-0.8,63.4s8.2-25.7-23.7-54.8c2.7,22.9,4.6,37.5-16.7,51.3c-24.2,15.7-12.7,42.7-6.9,53.2
		h-4h-61.3c1.7,3,3.7,5.9,5.9,8.6h338.6v-8.6h-12.6h-4.6C472.8,266.5,490.9,224.6,453.5,189.8z M340.5,259.3
		c0.5-2.6,1.8-6.1,7.4-9.7c8.5-5.5,19.9-18.3,16.6-30.9c0,0,21.2,10.3,21.6,30.2c15.9-4.3,24.5-22.4,27.5-43.5
		c30.5,32.2,5.5,65.5,5.5,65.5s28-15.6,37-32.5c7.3,10,3,37.1-4.6,40.1H344C341.5,272.7,339.3,265.3,340.5,259.3z"/>
	<path class="st0" d="M75.6,279.3l-4,8.6H106c-1.2-2.8-2.3-5.7-3.3-8.6H75.6z"/>
	<polygon class="st0" points="0,279.3 0,287.9 35.2,287.9 39.2,279.3 	"/>
	
		<ellipse transform="matrix(0.9739 -0.2268 0.2268 0.9739 -29.9297 22.4857)" class="st0" cx="82.9" cy="141.5" rx="22.5" ry="22.5"/>
	<path class="st0" d="M127.5,253c0-1.2,0-2.3,0.1-3.3c4.1-2.5,7.5-6.9,9-14.6c2.6-22.2,1.1-35.3-5.7-55.5c0,0,0,0,0,0
		c2.4,0.5,4.9,1.1,7.4,1.9c10.2,3.1,20.7,8.7,28.3,18.7c1.6,2.1,4,3.1,6.4,3.1c1.7,0,3.4-0.5,4.9-1.7c3.5-2.7,4.2-7.7,1.5-11.2
		c-10.2-13.3-24-20.4-36.3-24.2c-12.3-3.8-23.4-4.4-29.4-4.4c-2.8,0-4.5,0.1-4.7,0.1c0,0,0,0,0,0c-1.4,0-2.7,0.2-3.9,0.5
		c-8.5,2.1-12.3,14-9.4,24c0.2,1.2,0.5,2.5,0.8,3.8c0.4-0.4,0.8-0.9,1.1-1.4c2.4-3.3,3.8-7,3.9-7.4c0,0,0-0.1,0-0.1
		c1.4-4.2,5.2-7,9.5-7c1,0,2,0.1,2.9,0.4c5.3,1.6,8.2,7.2,6.6,12.5c-0.4,1.2-1.5,4.3-3.6,8.2c-3.4,6.2-7.5,10.8-12.4,14.1
		c-1.2,0.8-2.6,1.6-4.3,2.4c0.8,6.1,1.4,12.4,1.2,18.4L69.7,236c-4,0.7-7.4,3.3-9.1,7l-22.4,48.1c-2.9,6.3-0.2,13.7,6,16.6
		c6.3,2.9,13.7,0.2,16.6-6v0l19.7-42.2l22.1-4c0.3,9.7,2.4,22.4,9.5,35.8c7.6,14.6,21,29.6,42.7,41.8c1.9,1.1,4.1,1.6,6.2,1.6
		c4.3,0,8.6-2.3,10.9-6.3c3.4-6,1.3-13.6-4.7-17c-18-10.3-27.5-21.5-32.9-31.7C128.8,269.4,127.5,259.9,127.5,253z"/>
	<path class="st0" d="M103.4,207.8c5.9-3.9,9.4-9.2,11.7-13.4c2.3-4.2,3.3-7.5,3.4-7.8c1.3-4.2-1.1-8.7-5.3-10
		c-4.2-1.3-8.7,1.1-10,5.3l0,0c0,0,0,0,0,0l0,0v0h0c0,0,0,0,0,0c-0.1,0.4-1.6,4.5-4.2,8.1c-1.3,1.8-3,3.5-4.6,4.6
		c-1.7,1.1-3.4,1.7-5.6,1.7c-3.6,0-9.7-1.8-18.5-9.9c-3.3-3-8.3-2.7-11.3,0.5s-2.7,8.3,0.5,11.3c10.5,9.6,20.2,14,29.3,14.1
		c0,0,0.1,0,0.1,0C94.5,212.2,99.5,210.4,103.4,207.8z"/>
	<path class="st0" d="M136.9,136c2.4-10.8-19.6-8.2-19.6-8.2S135.3,143.4,136.9,136z"/>
	<path class="st0" d="M126.6,95.6c-8.1-7.5-17,12.8-17,12.8S132.2,100.8,126.6,95.6z"/>
	<path class="st0" d="M142.5,117.3c0,0,22.6,7.3,21.2-0.2C161.7,106.3,142.5,117.3,142.5,117.3z"/>
	<path class="st0" d="M250.1,48.4c-11.6-13-24.6,6.9-24.6,6.9s-21-11.1-24.8,5.9c8.4-7.3,21.9-1.3,26.8,1.6
		C230.3,57.9,239.2,46.1,250.1,48.4z"/>
	<path class="st0" d="M267.4,78.3c2.8-4.9,11.8-16.7,22.6-14.4c-11.6-13-24.6,6.9-24.6,6.9s-21-11.1-24.8,5.9
		C249.1,69.3,262.6,75.4,267.4,78.3z"/>
	<path class="st0" d="M307.1,4.4c-11.6-13-24.6,6.9-24.6,6.9s-21-11.1-24.8,5.9c8.4-7.3,21.9-1.3,26.8,1.6
		C287.3,13.9,296.2,2.1,307.1,4.4z"/>
	<path class="st0" d="M463.6,46.8c0,0-19.1-24.3-35.8-14.1c15.8,0.6,28.9,15.5,33.1,21.3c7-1.6,26.7-4.1,38.9,5.9
		C494.1,41.2,463.6,46.8,463.6,46.8z"/>
</g>
</svg>
