<?xml version="1.0" encoding="utf-8"?>
<!-- Generator: Adobe Illustrator 21.1.0, SVG Export Plug-In . SVG Version: 6.00 Build 0)  -->
<svg version="1.1" id="Layer_1" xmlns="http://www.w3.org/2000/svg" xmlns:xlink="http://www.w3.org/1999/xlink" x="0px" y="0px"
	 viewBox="0 0 129.8 274.2" style="enable-background:new 0 0 129.8 274.2;" xml:space="preserve">
<style type="text/css">
	.st0{fill:#FFFFFF;}
</style>
<g>
	<path class="st0" d="M118,59.9L92.4,42.3c-4,2.9-9,4.7-14.4,4.7c-7.9,0-15-3.8-19.5-9.6H44.4c-0.3,0-0.6,0-0.8,0c0,0-0.1,0-0.1,0
		L39.8,45l-5-6.2l-4.6,0.8L25.5,47l-5-5.7L6.7,43.6c-4,0.7-6.9,4.3-6.6,8.4l2.5,39c0.3,4.2,3.8,7.5,8,7.5c0.2,0,0.3,0,0.5,0
		c4.4-0.3,7.8-4.1,7.5-8.5l-2-31.8l20.2-3.4v58.8c0,0.4,0,0.7,0.1,1.1l-4.8,44.1l-10.5,16.4l11,2.7L16,183.3L5.5,199.7
		c-3.7,5.8-2.1,13.5,3.7,17.3c2.1,1.3,4.4,2,6.8,2c4.1,0,8.1-2,10.5-5.7l28-43.5c1-1.6,1.7-3.5,1.9-5.4l4.7-43.1h5.1l5,42.4
		c0.3,2.2,1.1,4.3,2.4,6l4,5.3l5.7-7.8l2.7,8l7.3,1.7l-1,7.3l4.7,2.3l-7.4,4.3l17.8,23.6c2.5,3.3,6.2,5,10,5c2.6,0,5.3-0.8,7.5-2.5
		c5.5-4.2,6.6-12,2.5-17.5l-31.6-42l-5.1-42.6c0.1-0.4,0.1-0.8,0.1-1.3V60.6l15,10.3l1.8,38c0.2,4.3,3.7,7.6,8,7.6
		c0.1,0,0.3,0,0.4,0c4.4-0.2,7.8-4,7.6-8.4l-2-42C121.4,63.6,120.1,61.3,118,59.9z"/>
	<path class="st0" d="M78,45c12.4,0,22.5-10.1,22.5-22.5C100.5,10.1,90.4,0,78,0c-4.7,0-9.1,1.5-12.8,4L72,14.5l-16.4,5.7
		c-0.1,0.8-0.1,1.5-0.1,2.3C55.5,34.9,65.6,45,78,45z"/>
</g>
</svg>
