<svg xmlns="http://www.w3.org/2000/svg" xmlns:xlink="http://www.w3.org/1999/xlink" version="1.1" x="0px" y="0px" viewBox="0 0 129.834 274.16875" style="enable-background:new 0 0 129.834 219.335;" xml:space="preserve"><g><path d="M118.024,59.9L92.376,42.321c-4.041,2.938-9.008,4.678-14.376,4.678c-7.922,0-14.974-3.782-19.455-9.632h-14.18   c-0.284,0-0.563,0.018-0.841,0.047c-0.043,0.001-0.086,0-0.129,0.002l-3.562,7.584l-5.042-6.187l-4.578,0.781L25.5,47l-4.999-5.749   L6.653,43.613c-4.044,0.691-6.899,4.303-6.637,8.399l2.5,38.998c0.272,4.235,3.791,7.489,7.976,7.489   c0.172,0,0.345-0.005,0.519-0.017c4.409-0.282,7.754-4.086,7.473-8.496l-2.04-31.813l20.193-3.444v58.758   c0,0.365,0.034,0.722,0.083,1.074l-4.826,44.147l-10.542,16.379l10.981,2.746l-16.29,5.501L5.487,199.734   c-3.735,5.806-2.061,13.54,3.746,17.276c2.094,1.347,4.438,1.991,6.754,1.991c4.109,0,8.135-2.024,10.524-5.737l27.998-43.5   c1.031-1.6,1.708-3.515,1.915-5.407l4.718-43.14h5.067l5.045,42.425c0.257,2.168,1.116,4.304,2.43,6.047l3.986,5.288l5.662-7.811   l2.667,8l7.333,1.667l-1,7.333L97,186.501l-7.44,4.251l17.791,23.605c2.457,3.259,6.203,4.977,9.994,4.977   c2.619,0,5.26-0.82,7.512-2.518c5.514-4.155,6.613-11.995,2.459-17.506l-31.635-41.972l-5.063-42.594   c0.066-0.41,0.11-0.828,0.11-1.256V60.591l14.97,10.26l1.811,38.029c0.205,4.284,3.74,7.619,7.984,7.619   c0.129,0,0.258-0.003,0.388-0.009c4.413-0.21,7.819-3.958,7.61-8.371l-2-42.001C121.37,63.61,120.096,61.322,118.024,59.9z"/><path d="M78,45c12.427,0,22.5-10.072,22.5-22.5C100.5,10.074,90.427,0,78,0c-4.741,0-9.139,1.47-12.767,3.975L72,14.5   l-16.384,5.699C55.54,20.956,55.5,21.723,55.5,22.5C55.5,34.928,65.573,45,78,45z"/></g></svg>